<svg width="500" height="500" version="1.1" xmlns="http://www.w3.org/2000/svg" desc="Created with imagetracer.js version 1.2.6" ><path fill="rgb(0,0,0)" stroke="rgb(0,0,0)" stroke-width="1" opacity="0" d="M 0 0 L 500 0 L 500 500 L 0 500 L 0 0 Z M 238 93 Q 236 96 235 94 L 229 96 L 227 95 L 225 98 L 222 97 L 217 99 L 215 99 L 213 102 L 211 101 L 207 103 L 205 106 L 200 107 Q 197 106 198 109 L 196 111 L 190 113 L 186 118 Q 185 120 184 118 L 178 124 Q 179 126 177 125 L 173 129 Q 175 130 173 131 Q 170 130 171 133 L 167 139 Q 168 141 166 140 L 166 142 L 165 142 L 165 144 L 164 146 L 161 149 L 162 150 L 161 150 L 161 152 L 157 160 L 157 162 L 156 167 L 154 167 L 155 169 L 154 175 L 154 177 Q 155 180 152 179 L 153 185 Q 154 190 151 189 L 151 193 Q 154 194 152 196 Q 153 199 150 198 L 148 201 L 146 202 L 139 211 L 135 214 L 137 215 L 135 215 L 134 218 Q 135 220 132 219 L 128 232 L 126 234 L 128 236 L 126 235 L 127 238 L 125 248 L 125 352 L 126 353 L 126 361 L 125 362 L 127 362 L 128 366 L 127 368 L 129 368 L 128 370 L 131 375 L 130 376 L 133 379 L 132 380 L 135 380 L 135 383 L 140 388 Q 142 387 141 391 L 148 397 L 149 396 L 150 399 L 153 399 L 163 405 L 182 411 L 196 412 L 197 413 L 213 413 L 217 413 L 220 412 L 224 413 L 229 412 L 242 413 L 245 412 L 247 413 L 251 413 L 260 413 L 261 412 L 264 413 L 266 413 L 275 412 L 279 412 L 305 412 L 306 413 L 326 408 L 328 409 L 328 407 Q 340 404 349 396 Q 363 385 368 366 L 370 366 L 369 363 L 371 363 L 370 361 L 371 351 L 373 351 L 371 350 L 371 343 L 372 342 L 372 324 L 371 323 L 371 290 L 372 289 L 372 247 L 371 246 L 372 243 L 370 238 L 371 232 L 370 232 L 370 231 L 368 226 L 368 224 L 367 223 Q 364 222 366 221 L 365 220 L 365 219 L 363 218 L 361 215 L 362 213 L 359 210 Q 356 209 358 208 L 355 205 L 350 200 L 349 200 L 349 199 L 348 198 L 346 198 L 346 197 L 345 191 L 344 197 L 343 197 L 343 180 L 344 179 Q 344 167 339 162 L 340 160 Q 341 157 339 158 L 338 156 Q 339 153 336 154 L 335 151 Q 338 149 334 148 Q 335 145 332 146 L 330 143 L 331 140 L 328 139 Q 329 136 326 137 L 326 134 L 324 132 Q 321 131 323 130 L 321 128 Q 318 127 320 126 L 317 122 Q 314 123 315 121 L 312 117 L 311 118 L 309 116 Q 308 113 307 115 L 305 112 L 301 111 L 301 110 L 299 108 L 297 108 L 295 105 L 293 106 L 292 104 Q 290 105 289 102 L 288 103 L 287 102 L 286 102 L 277 97 L 275 98 L 270 97 Q 267 91 265 96 L 264 94 L 260 95 L 259 93 L 252 93 L 251 94 L 238 93 Z M 273 96 L 273 97 L 275 97 L 273 96 Z M 345 186 L 344 189 L 345 189 L 345 186 Z " /><path fill="rgb(243,248,240)" stroke="rgb(243,248,240)" stroke-width="1" opacity="0.9215686274509803" d="M 237.5 93 L 250.5 94 Q 252.2 91.2 258.5 93 L 258.5 94 L 255 94.5 L 259.5 95 L 263.5 94 L 263.5 95 L 261 95.5 L 264.5 96 Q 266.3 92.3 268 95.5 L 266 96.5 L 274.5 99 L 275 97 L 272 96.5 L 274.5 96 L 283 100.5 Q 282.3 102.8 284.5 102 L 287.5 103 L 289 102.5 L 288.5 104 L 290.5 105 L 291.5 103 L 292 104.5 L 291.5 106 L 294.5 105 L 295.5 108 L 297.5 107 L 301 109.5 L 298.5 111 L 284.5 103 L 269.5 98 L 264.5 98 L 257.5 96 L 236.5 96 L 223.5 99 L 213.5 103 L 214 101.5 L 214.5 99 L 215.5 101 L 216.5 99 L 218.5 100 L 218.5 98 L 220.5 99 L 220.5 97 L 226.5 98 L 226 96.5 L 226.5 95 L 227 97 L 230 96.5 L 229.5 95 L 233.5 96 L 233.5 95 L 232 94.5 L 234.5 94 L 239.5 95 L 239.5 94 Q 236.5 94.5 237.5 93 Z " /><path fill="rgb(243,248,240)" stroke="rgb(243,248,240)" stroke-width="1" opacity="0.9215686274509803" d="M 210.5 101 L 210.5 103 L 212 103.5 L 204.5 107 L 204.5 106 L 206 105.5 Q 203.8 104.3 206.5 103 L 210.5 101 Z " /><path fill="rgb(243,248,240)" stroke="rgb(243,248,240)" stroke-width="1" opacity="0.9215686274509803" d="M 238.5 105 L 263.5 106 L 279.5 111 Q 301.2 120.3 315 137.5 Q 323 148 328 161.5 L 331 171.5 L 331 188 Q 327.7 189.3 329 184.5 L 323 160.5 Q 318.5 149 310.5 141 L 309 141.5 L 310 138.5 L 303.5 134 L 302 134.5 L 297.5 129 L 276.5 117 L 259.5 113 L 257.5 114 L 254 113 L 251.5 117 L 247.5 118 L 240 115 Q 241.1 112.3 238.5 113 L 220.5 117 Q 205.6 123.1 195 133.5 L 194.5 136 L 190.5 135 L 186 141.5 L 186.5 143 Q 185.2 140.8 184 143.5 L 172 165.5 L 168 182.5 L 168 189 L 165 187.5 L 166 172.5 L 173 150.5 Q 181.5 134 195.5 123 Q 205.4 114.9 218.5 110 L 238.5 105 Z M 247 109 L 244 113 L 248 117 Q 253 117 253 114 L 252 111 Q 251 108 247 109 Z " /><path fill="rgb(243,248,240)" stroke="rgb(243,248,240)" stroke-width="1" opacity="0.9215686274509803" d="M 200.5 106 L 203 107.5 L 190.5 116 L 188.5 115 L 186 116.5 L 191.5 112 Q 193 114.5 194.5 111 Q 198.5 111.5 199 108.5 L 198.5 107 L 200.5 106 Z " /><path fill="rgb(243,248,240)" stroke="rgb(243,248,240)" stroke-width="1" opacity="0.9215686274509803" d="M 302.5 112 L 305 112.5 Q 302.8 113.7 305.5 115 L 307.5 114 L 310.5 119 L 312 118.5 L 310.5 116 L 315 120.5 Q 312.8 121.8 315.5 123 L 316.5 122 L 321 126.5 L 318 126.5 Q 320.7 124.7 316.5 123 L 315.5 124 L 311.5 120 Q 305 116.9 302.5 112 Z " /><path fill="rgb(243,248,240)" stroke="rgb(243,248,240)" stroke-width="1" opacity="0.9215686274509803" d="M 183.5 118 L 184 120 L 178.5 124 L 183.5 118 Z " /><path fill="rgb(243,248,240)" stroke="rgb(243,248,240)" stroke-width="1" opacity="0.9215686274509803" d="M 186.5 118 L 185.5 120 L 186.5 118 Z " /><path fill="rgb(243,248,240)" stroke="rgb(243,248,240)" stroke-width="1" opacity="0.9215686274509803" d="M 258.5 121 L 261 121.5 L 258.5 122 L 258.5 121 Z " /><path fill="rgb(243,248,240)" stroke="rgb(243,248,240)" stroke-width="1" opacity="0.9215686274509803" d="M 182.5 122 L 181.5 124 L 182.5 122 Z " /><path fill="rgb(243,248,240)" stroke="rgb(243,248,240)" stroke-width="1" opacity="0.9215686274509803" d="M 262.5 122 L 265 122.5 L 262.5 123 L 262.5 122 Z " /><path fill="rgb(243,248,240)" stroke="rgb(243,248,240)" stroke-width="1" opacity="0.9215686274509803" d="M 176.5 125 L 173.5 129 L 176.5 125 Z " /><path fill="rgb(243,248,240)" stroke="rgb(243,248,240)" stroke-width="1" opacity="0.9215686274509803" d="M 321.5 128 Q 326 130 322.5 132 L 321.5 128 Z " /><path fill="rgb(243,248,240)" stroke="rgb(243,248,240)" stroke-width="1" opacity="0.9215686274509803" d="M 324.5 132 L 326 134.5 L 325 134.5 L 324.5 132 Z " /><path fill="rgb(243,248,240)" stroke="rgb(243,248,240)" stroke-width="1" opacity="0.9215686274509803" d="M 170.5 133 L 168.5 136 L 170.5 133 Z " /><path fill="rgb(243,248,240)" stroke="rgb(243,248,240)" stroke-width="1" opacity="0.9215686274509803" d="M 330.5 140 L 332 142.5 L 330 141.5 L 330.5 140 Z " /><path fill="rgb(243,248,240)" stroke="rgb(243,248,240)" stroke-width="1" opacity="0.9215686274509803" d="M 334.5 148 L 335.5 150 L 334.5 148 Z " /><path fill="rgb(243,248,240)" stroke="rgb(243,248,240)" stroke-width="1" opacity="0.9215686274509803" d="M 157.5 158 L 158 159.5 L 156 160.5 L 157.5 158 Z " /><path fill="rgb(243,248,240)" stroke="rgb(243,248,240)" stroke-width="1" opacity="0.9215686274509803" d="M 339.5 158 L 341 161.5 L 340 161.5 L 339.5 158 Z " /><path fill="rgb(243,248,240)" stroke="rgb(243,248,240)" stroke-width="1" opacity="0.9215686274509803" d="M 155.5 162 L 157 164.5 L 155 163.5 L 155.5 162 Z " /><path fill="rgb(243,248,240)" stroke="rgb(243,248,240)" stroke-width="1" opacity="0.9215686274509803" d="M 154.5 166 L 155.5 168 Q 152.7 168.7 154.5 166 Z " /><path fill="rgb(243,248,240)" stroke="rgb(243,248,240)" stroke-width="1" opacity="0.9215686274509803" d="M 343.5 174 L 344 178.5 L 343 178.5 L 343.5 174 Z " /><path fill="rgb(243,248,240)" stroke="rgb(243,248,240)" stroke-width="1" opacity="0.9215686274509803" d="M 152.5 179 L 153 181.5 L 152 181.5 L 152.5 179 Z " /><path fill="rgb(243,248,240)" stroke="rgb(243,248,240)" stroke-width="1" opacity="0.9215686274509803" d="M 151 188 Q 155 186.6 153 193.5 L 151 192.5 L 151 188 Z " /><path fill="rgb(243,248,240)" stroke="rgb(243,248,240)" stroke-width="1" opacity="0.9215686274509803" d="M 344.5 192 L 345 194.5 L 344 194.5 L 344.5 192 Z " /><path fill="rgb(243,248,240)" stroke="rgb(243,248,240)" stroke-width="1" opacity="0.9215686274509803" d="M 182.5 196 L 316.5 196 Q 339.1 199.9 350 215.5 L 357 226.5 L 360 239.5 L 359 239.5 L 358 234 L 355.5 233 L 354 233.5 L 352 228.5 L 352.5 227 Q 350.3 227.8 351 225.5 L 338.5 211 L 334 207.5 Q 334.8 205.3 332.5 206 L 330.5 206 L 317.5 202 L 181.5 202 L 170.5 204 L 162.5 208 L 149 220.5 L 141 238.5 L 139 263 Q 135 264.4 137 257.5 L 136 257.5 L 135.5 279 L 135 245.5 L 138 230.5 Q 143.1 216.6 153.5 208 L 156.5 206 L 173.5 197 L 181.5 197 L 182.5 196 Z " /><path fill="rgb(243,248,240)" stroke="rgb(243,248,240)" stroke-width="1" opacity="0.9215686274509803" d="M 344.5 196 L 350 199.5 L 348.5 199 Q 343.8 198.2 344.5 196 Z " /><path fill="rgb(243,248,240)" stroke="rgb(243,248,240)" stroke-width="1" opacity="0.9215686274509803" d="M 149.5 198 L 148.5 200 L 149.5 198 Z " /><path fill="rgb(243,248,240)" stroke="rgb(243,248,240)" stroke-width="1" opacity="0.9215686274509803" d="M 355.5 205 L 358.5 209 L 355.5 205 Z " /><path fill="rgb(243,248,240)" stroke="rgb(243,248,240)" stroke-width="1" opacity="0.9215686274509803" d="M 180.5 209 Q 186 207.5 187.5 210 L 306.5 210 L 310.5 209 L 311.5 210 L 322.5 210 L 332.5 215 L 336 218.5 L 333.5 219 L 318.5 212 L 178.5 212 Q 169.2 213.7 163.5 219 L 162 217.5 L 165.5 214 L 173.5 210 Q 179 211.5 180.5 209 Z " /><path fill="rgb(243,248,240)" stroke="rgb(243,248,240)" stroke-width="1" opacity="0.9215686274509803" d="M 359.5 210 L 363 214.5 L 360 212.5 L 359.5 210 Z " /><path fill="rgb(243,248,240)" stroke="rgb(243,248,240)" stroke-width="1" opacity="0.9215686274509803" d="M 160.5 218 L 160 219.5 Q 160.8 221.8 158.5 221 L 157 221.5 L 160.5 218 Z " /><path fill="rgb(243,248,240)" stroke="rgb(243,248,240)" stroke-width="1" opacity="0.9215686274509803" d="M 222.5 227 Q 236.5 225.5 241 233.5 L 244 238.5 L 244 290.5 L 243 290.5 L 242 248.5 L 240 241.5 L 234.5 236 Q 230.8 232.7 222.5 234 Q 213.4 236.4 209 243.5 L 206.5 247 L 195.5 249 L 189 254.5 L 182.5 266 L 182 257.5 Q 184.1 250.1 189.5 246 Q 195.9 241.6 207 243 Q 209 233.8 216.5 229 L 222.5 227 Z " /><path fill="rgb(243,248,240)" stroke="rgb(243,248,240)" stroke-width="1" opacity="0.9215686274509803" d="M 267.5 227 Q 283.1 226.4 288 236.5 L 290 243 Q 307.1 241.5 313 252.5 Q 316 257.5 315 266.5 L 314 266.5 Q 313 257.5 307.5 253 L 300.5 249 L 290 247 L 287.5 242 L 279.5 235 L 272.5 233 Q 271 235.5 265.5 234 L 259 239.5 L 257 243.5 L 256 310.5 Q 258.7 312.2 257 318.5 L 253 320 L 254 311.5 L 254 309.5 L 253 304.5 L 254 303.5 L 254 282.5 L 253 281.5 L 253 239.5 L 258.5 231 L 267.5 227 Z " /><path fill="rgb(243,248,240)" stroke="rgb(243,248,240)" stroke-width="1" opacity="0.9215686274509803" d="M 368.5 227 L 371 232.5 L 369 233.5 L 370 231.5 L 368.5 227 Z " /><path fill="rgb(243,248,240)" stroke="rgb(243,248,240)" stroke-width="1" opacity="0.9215686274509803" d="M 127.5 232 L 126.5 234 L 127.5 232 Z " /><path fill="rgb(243,248,240)" stroke="rgb(243,248,240)" stroke-width="1" opacity="0.9215686274509803" d="M 321.5 235 Q 322.9 238.6 328.5 238 L 331.5 236 L 330.5 238 L 325.5 239 L 321.5 235 Z " /><path fill="rgb(243,248,240)" stroke="rgb(243,248,240)" stroke-width="1" opacity="0.9215686274509803" d="M 174.5 236 L 172.5 239 Q 167.3 240.3 166 237.5 L 167.5 238 Q 173.2 239.3 174.5 236 Z " /><path fill="rgb(243,248,240)" stroke="rgb(243,248,240)" stroke-width="1" opacity="0.9215686274509803" d="M 360.5 241 L 361 245.5 L 360 245.5 L 360.5 241 Z " /><path fill="rgb(243,248,240)" stroke="rgb(243,248,240)" stroke-width="1" opacity="0.9215686274509803" d="M 356.5 245 L 357 251.5 L 356 251.5 L 356.5 245 Z " /><path fill="rgb(243,248,240)" stroke="rgb(243,248,240)" stroke-width="1" opacity="0.9215686274509803" d="M 371.5 246 L 372 255.5 L 371 255.5 L 371.5 246 Z " /><path fill="rgb(243,248,240)" stroke="rgb(243,248,240)" stroke-width="1" opacity="0.9215686274509803" d="M 371.5 257 L 372 288.5 L 371 288.5 L 371.5 257 Z " /><path fill="rgb(243,248,240)" stroke="rgb(243,248,240)" stroke-width="1" opacity="0.9215686274509803" d="M 209.5 270 L 210.5 272 L 209.5 270 Z " /><path fill="rgb(243,248,240)" stroke="rgb(243,248,240)" stroke-width="1" opacity="0.9215686274509803" d="M 286.5 271 L 281.5 277 L 268.5 279 L 268.5 278 Q 281.4 278.4 286.5 271 Z " /><path fill="rgb(243,248,240)" stroke="rgb(243,248,240)" stroke-width="1" opacity="0.9215686274509803" d="M 212.5 273 Q 217.3 278.7 228.5 278 L 230 277.5 Q 228.3 280.8 221.5 279 L 212 275 L 212.5 273 Z " /><path fill="rgb(243,248,240)" stroke="rgb(243,248,240)" stroke-width="1" opacity="0.9215686274509803" d="M 176.5 275 L 177 279.5 L 173.5 284 L 169.5 285 L 170 283.5 Q 171.4 277.4 176.5 275 Z " /><path fill="rgb(243,248,240)" stroke="rgb(243,248,240)" stroke-width="1" opacity="0.9215686274509803" d="M 318 276 L 320.5 276 L 325 280.5 L 321.5 282 L 321.5 280 Q 317.8 280.8 317 278.5 L 318 276 Z " /><path fill="rgb(243,248,240)" stroke="rgb(243,248,240)" stroke-width="1" opacity="0.9215686274509803" d="M 184.5 288 L 194 295.5 L 192.5 296 L 184.5 288 Z " /><path fill="rgb(243,248,240)" stroke="rgb(243,248,240)" stroke-width="1" opacity="0.9215686274509803" d="M 310.5 290 L 307.5 294 L 303.5 296 L 303.5 295 L 310.5 290 Z " /><path fill="rgb(243,248,240)" stroke="rgb(243,248,240)" stroke-width="1" opacity="0.9215686274509803" d="M 195.5 296 L 202 297 Q 203.1 299.7 200.5 299 L 195.5 297 L 195.5 296 Z " /><path fill="rgb(243,248,240)" stroke="rgb(243,248,240)" stroke-width="1" opacity="0.9215686274509803" d="M 295.5 297 L 298 297.5 L 295.5 298 L 295.5 297 Z " /><path fill="rgb(243,248,240)" stroke="rgb(243,248,240)" stroke-width="1" opacity="0.9215686274509803" d="M 208.5 319 L 210 322 L 218 325.5 L 216.5 326 L 209 321.5 L 208.5 319 Z " /><path fill="rgb(243,248,240)" stroke="rgb(243,248,240)" stroke-width="1" opacity="0.9215686274509803" d="M 181.5 322 L 184 322.5 L 181.5 323 L 181.5 322 Z " /><path fill="rgb(243,248,240)" stroke="rgb(243,248,240)" stroke-width="1" opacity="0.9215686274509803" d="M 193.5 322 L 197 322.5 L 193.5 323 L 193.5 322 Z " /><path fill="rgb(243,248,240)" stroke="rgb(243,248,240)" stroke-width="1" opacity="0.9215686274509803" d="M 284.5 322 L 283.5 324 L 280.5 325 L 280.5 324 L 284.5 322 Z " /><path fill="rgb(243,248,240)" stroke="rgb(243,248,240)" stroke-width="1" opacity="0.9215686274509803" d="M 371.5 323 L 372 341.5 L 371 341.5 L 371.5 323 Z " /><path fill="rgb(243,248,240)" stroke="rgb(243,248,240)" stroke-width="1" opacity="0.9215686274509803" d="M 219.5 326 L 225 326.5 L 219.5 327 L 219.5 326 Z " /><path fill="rgb(243,248,240)" stroke="rgb(243,248,240)" stroke-width="1" opacity="0.9215686274509803" d="M 204.5 346 L 210 346.5 L 204.5 347 L 204.5 346 Z " /><path fill="rgb(243,248,240)" stroke="rgb(243,248,240)" stroke-width="1" opacity="0.9215686274509803" d="M 125.5 349 L 126 351.5 L 125 351.5 L 125.5 349 Z " /><path fill="rgb(243,248,240)" stroke="rgb(243,248,240)" stroke-width="1" opacity="0.9215686274509803" d="M 130.5 375 L 131.5 377 L 130.5 375 Z " /><path fill="rgb(198,213,208)" stroke="rgb(198,213,208)" stroke-width="1" opacity="0.9568627450980393" d="M 237.5 94 L 240 94.5 L 237.5 95 L 237.5 94 Z " /><path fill="rgb(198,213,208)" stroke="rgb(198,213,208)" stroke-width="1" opacity="0.9568627450980393" d="M 255.5 94 L 258 94.5 L 255.5 95 L 255.5 94 Z " /><path fill="rgb(198,213,208)" stroke="rgb(198,213,208)" stroke-width="1" opacity="0.9568627450980393" d="M 231.5 95 L 234 95.5 L 231.5 96 L 231.5 95 Z " /><path fill="rgb(198,213,208)" stroke="rgb(198,213,208)" stroke-width="1" opacity="0.9568627450980393" d="M 236.5 96 L 240 96.5 L 236.5 97 L 236.5 96 Z " /><path fill="rgb(198,213,208)" stroke="rgb(198,213,208)" stroke-width="1" opacity="0.9568627450980393" d="M 255.5 96 L 258 96.5 L 255.5 97 L 255.5 96 Z " /><path fill="rgb(198,213,208)" stroke="rgb(198,213,208)" stroke-width="1" opacity="0.9568627450980393" d="M 226.5 97 L 229 98.5 L 227.5 99 L 226.5 97 Z " /><path fill="rgb(198,213,208)" stroke="rgb(198,213,208)" stroke-width="1" opacity="0.9568627450980393" d="M 270.5 97 L 269.5 99 L 268 98.5 L 270.5 97 Z " /><path fill="rgb(198,213,208)" stroke="rgb(198,213,208)" stroke-width="1" opacity="0.9568627450980393" d="M 274.5 98 L 273.5 100 L 272 99.5 L 274.5 98 Z " /><path fill="rgb(198,213,208)" stroke="rgb(198,213,208)" stroke-width="1" opacity="0.9568627450980393" d="M 213.5 101 L 216 102.5 L 214.5 103 L 213 102.5 L 212.5 104 L 210 102.5 L 213.5 101 Z " /><path fill="rgb(198,213,208)" stroke="rgb(198,213,208)" stroke-width="1" opacity="0.9568627450980393" d="M 285.5 102 L 287 102.5 L 283.5 104 L 283.5 103 L 285.5 102 Z " /><path fill="rgb(198,213,208)" stroke="rgb(198,213,208)" stroke-width="1" opacity="0.9568627450980393" d="M 206.5 104 L 206.5 107 Q 203.5 105.5 206.5 104 Z " /><path fill="rgb(198,213,208)" stroke="rgb(198,213,208)" stroke-width="1" opacity="0.9568627450980393" d="M 290.5 104 Q 293.5 105.5 290.5 107 L 290.5 104 Z " /><path fill="rgb(198,213,208)" stroke="rgb(198,213,208)" stroke-width="1" opacity="0.9568627450980393" d="M 234.5 105 L 238 105.5 L 234.5 106 L 234.5 105 Z " /><path fill="rgb(198,213,208)" stroke="rgb(198,213,208)" stroke-width="1" opacity="0.9568627450980393" d="M 257.5 105 L 261 105.5 L 257.5 106 L 257.5 105 Z " /><path fill="rgb(198,213,208)" stroke="rgb(198,213,208)" stroke-width="1" opacity="0.9568627450980393" d="M 202.5 106 Q 204.8 105.3 204 107.5 L 202.5 106 Z " /><path fill="rgb(198,213,208)" stroke="rgb(198,213,208)" stroke-width="1" opacity="0.9568627450980393" d="M 293.5 106 L 292.5 108 L 293.5 106 Z " /><path fill="rgb(198,213,208)" stroke="rgb(198,213,208)" stroke-width="1" opacity="0.9568627450980393" d="M 200.5 107 Q 203.5 108.5 200.5 110 L 200.5 107 Z " /><path fill="rgb(198,213,208)" stroke="rgb(198,213,208)" stroke-width="1" opacity="0.9568627450980393" d="M 295.5 107 L 294.5 109 L 295.5 107 Z " /><path fill="rgb(198,213,208)" stroke="rgb(198,213,208)" stroke-width="1" opacity="0.9568627450980393" d="M 198.5 108 L 198.5 111 L 196 110.5 L 198.5 108 Z " /><path fill="rgb(198,213,208)" stroke="rgb(198,213,208)" stroke-width="1" opacity="0.9568627450980393" d="M 297.5 108 L 304 112.5 L 303.5 115 L 299 111.5 L 298.5 110 Q 297.3 112.3 296 109.5 L 297.5 108 Z " /><path fill="rgb(198,213,208)" stroke="rgb(198,213,208)" stroke-width="1" opacity="0.9568627450980393" d="M 246.5 109 L 248 109.5 L 245.5 111 L 246.5 109 Z " /><path fill="rgb(198,213,208)" stroke="rgb(198,213,208)" stroke-width="1" opacity="0.9568627450980393" d="M 249.5 109 L 252 110.5 L 250.5 110 L 249.5 109 Z " /><path fill="rgb(198,213,208)" stroke="rgb(198,213,208)" stroke-width="1" opacity="0.9568627450980393" d="M 193.5 111 L 192.5 113 L 193.5 111 Z " /><path fill="rgb(198,213,208)" stroke="rgb(198,213,208)" stroke-width="1" opacity="0.9568627450980393" d="M 238.5 113 Q 241.1 112.3 240 115 L 242.5 115 L 246.5 117 L 249.5 116 L 251.5 117 L 254 113 L 258.5 114 L 260.5 114 L 265.5 114 L 276.5 117 Q 291.8 122.8 302 133.5 L 302.5 135 L 304.5 134 L 304.5 135 Q 302.3 134.3 303 136.5 L 302 138.5 L 304.5 142 L 306.5 142 L 308.5 141 L 310.5 141 L 313 143.5 Q 322.7 154.3 326 171.5 L 325 175 L 314 173 Q 312.7 163.5 308 156.5 Q 300.2 144.3 289.5 135 L 273.5 126 L 268 125 Q 269.1 122.3 266.5 123 L 264.5 124 L 264.5 122 L 259.5 123 L 259.5 122 L 261 121.5 L 258.5 121 L 255.5 122 Q 244 120.5 236.5 123 Q 235 120.5 233.5 124 L 231.5 123 L 229.5 125 L 223.5 126 L 213.5 131 L 197 144.5 L 185 164.5 L 181.5 177 L 180.5 173 L 174.5 175 L 171 174.5 L 170.5 176 L 170 173.5 Q 174.7 153.7 186.5 141 L 191.5 144 L 195 141.5 Q 196 137 193.5 136 Q 189.8 135.3 189 137.5 L 187.5 140 L 187 138.5 Q 187.8 134.3 193.5 135 L 195 135.5 Q 194.5 131.5 197.5 131 Q 207.4 122.4 220.5 117 L 238.5 113 Z M 248 117 L 248 118 L 250 118 L 248 117 Z " /><path fill="rgb(198,213,208)" stroke="rgb(198,213,208)" stroke-width="1" opacity="0.9568627450980393" d="M 190.5 114 L 193 114.5 L 181 123.5 L 178.5 127 Q 176.3 126.3 177 128.5 Q 163.5 142.5 157.5 164 L 157 160.5 L 167 138.5 Q 173.3 127.8 182.5 120 L 190.5 114 Z " /><path fill="rgb(198,213,208)" stroke="rgb(198,213,208)" stroke-width="1" opacity="0.9568627450980393" d="M 307.5 115 L 319 125.5 L 318.5 127 L 322 129.5 Q 320.9 132.8 323.5 132 L 326 137 Q 328.7 135.9 328 138.5 L 335 149.5 L 333 150 Q 325.5 132.3 311 120.5 L 311.5 119 L 308.5 117 Q 307.3 119.3 306 116.5 L 307.5 115 Z " /><path fill="rgb(198,213,208)" stroke="rgb(198,213,208)" stroke-width="1" opacity="0.9568627450980393" d="M 203.5 117 L 202.5 119 L 203.5 117 Z " /><path fill="rgb(198,213,208)" stroke="rgb(198,213,208)" stroke-width="1" opacity="0.9568627450980393" d="M 200.5 119 L 199.5 121 L 200.5 119 Z " /><path fill="rgb(198,213,208)" stroke="rgb(198,213,208)" stroke-width="1" opacity="0.9568627450980393" d="M 296.5 120 L 297.5 122 L 296.5 120 Z " /><path fill="rgb(198,213,208)" stroke="rgb(198,213,208)" stroke-width="1" opacity="0.9568627450980393" d="M 299.5 122 L 301.5 125 L 299.5 122 Z " /><path fill="rgb(198,213,208)" stroke="rgb(198,213,208)" stroke-width="1" opacity="0.9568627450980393" d="M 304.5 126 L 313.5 136 L 304.5 126 Z " /><path fill="rgb(198,213,208)" stroke="rgb(198,213,208)" stroke-width="1" opacity="0.9568627450980393" d="M 190.5 127 L 185.5 133 L 190.5 127 Z " /><path fill="rgb(198,213,208)" stroke="rgb(198,213,208)" stroke-width="1" opacity="0.9568627450980393" d="M 181.5 137 L 180.5 139 L 181.5 137 Z " /><path fill="rgb(198,213,208)" stroke="rgb(198,213,208)" stroke-width="1" opacity="0.9568627450980393" d="M 308.5 137 L 310 139.5 L 309 139.5 L 308.5 137 Z " /><path fill="rgb(198,213,208)" stroke="rgb(198,213,208)" stroke-width="1" opacity="0.9568627450980393" d="M 315.5 138 L 316.5 140 L 315.5 138 Z " /><path fill="rgb(198,213,208)" stroke="rgb(198,213,208)" stroke-width="1" opacity="0.9568627450980393" d="M 156.5 165 L 157 168.5 L 155.5 172 L 155 169.5 L 156.5 165 Z " /><path fill="rgb(198,213,208)" stroke="rgb(198,213,208)" stroke-width="1" opacity="0.9568627450980393" d="M 167.5 165 L 168 167.5 L 167 167.5 L 167.5 165 Z " /><path fill="rgb(198,213,208)" stroke="rgb(198,213,208)" stroke-width="1" opacity="0.9568627450980393" d="M 331.5 175 L 332 192 L 329 190.5 L 328 184.5 L 329 184.5 Q 327.7 189.3 331 188 L 331.5 175 Z " /><path fill="rgb(198,213,208)" stroke="rgb(198,213,208)" stroke-width="1" opacity="0.9568627450980393" d="M 169.5 177 L 170 179.5 L 169 179.5 L 169.5 177 Z " /><path fill="rgb(198,213,208)" stroke="rgb(198,213,208)" stroke-width="1" opacity="0.9568627450980393" d="M 327.5 177 L 328 180.5 L 327 180.5 L 327.5 177 Z " /><path fill="rgb(198,213,208)" stroke="rgb(198,213,208)" stroke-width="1" opacity="0.9568627450980393" d="M 153.5 182 L 154 187.5 L 153 187.5 L 153.5 182 Z " /><path fill="rgb(198,213,208)" stroke="rgb(198,213,208)" stroke-width="1" opacity="0.9568627450980393" d="M 164.5 182 Q 163.6 187.4 166.5 189 Q 168.8 188.3 168 190.5 L 164 192 L 164.5 182 Z " /><path fill="rgb(198,213,208)" stroke="rgb(198,213,208)" stroke-width="1" opacity="0.9568627450980393" d="M 168.5 182 L 169 186.5 L 168 186.5 L 168.5 182 Z " /><path fill="rgb(198,213,208)" stroke="rgb(198,213,208)" stroke-width="1" opacity="0.9568627450980393" d="M 152 196 L 154 196.5 L 152 197.5 L 152 196 Z " /><path fill="rgb(198,213,208)" stroke="rgb(198,213,208)" stroke-width="1" opacity="0.9568627450980393" d="M 176.5 196 L 182 196.5 L 176.5 197 L 176.5 196 Z " /><path fill="rgb(198,213,208)" stroke="rgb(198,213,208)" stroke-width="1" opacity="0.9568627450980393" d="M 317.5 196 L 320 196.5 L 317.5 197 L 317.5 196 Z " /><path fill="rgb(198,213,208)" stroke="rgb(198,213,208)" stroke-width="1" opacity="0.9568627450980393" d="M 346.5 198 L 356 206.5 L 360 212.5 L 356 209.5 L 346.5 198 Z " /><path fill="rgb(198,213,208)" stroke="rgb(198,213,208)" stroke-width="1" opacity="0.9568627450980393" d="M 181.5 202 L 233 202.5 L 181.5 203 L 181.5 202 Z " /><path fill="rgb(198,213,208)" stroke="rgb(198,213,208)" stroke-width="1" opacity="0.9568627450980393" d="M 269.5 202 L 273 202.5 L 269.5 203 L 269.5 202 Z " /><path fill="rgb(198,213,208)" stroke="rgb(198,213,208)" stroke-width="1" opacity="0.9568627450980393" d="M 278.5 202 L 299 202.5 L 278.5 203 L 278.5 202 Z " /><path fill="rgb(198,213,208)" stroke="rgb(198,213,208)" stroke-width="1" opacity="0.9568627450980393" d="M 314.5 202 L 318 202.5 L 314.5 203 L 314.5 202 Z " /><path fill="rgb(198,213,208)" stroke="rgb(198,213,208)" stroke-width="1" opacity="0.9568627450980393" d="M 159.5 203 L 158.5 205 L 159.5 203 Z " /><path fill="rgb(198,213,208)" stroke="rgb(198,213,208)" stroke-width="1" opacity="0.9568627450980393" d="M 331.5 205 L 334 206 L 335.5 209 L 337 208.5 Q 335.3 211.8 333.5 208 Q 331.3 208.8 332 206.5 L 330 206.5 L 331.5 205 Z " /><path fill="rgb(198,213,208)" stroke="rgb(198,213,208)" stroke-width="1" opacity="0.9568627450980393" d="M 342.5 207 L 348.5 214 L 342.5 207 Z " /><path fill="rgb(198,213,208)" stroke="rgb(198,213,208)" stroke-width="1" opacity="0.9568627450980393" d="M 151.5 209 L 150.5 211 L 151.5 209 Z " /><path fill="rgb(198,213,208)" stroke="rgb(198,213,208)" stroke-width="1" opacity="0.9568627450980393" d="M 176.5 209 L 180 209.5 L 176.5 210 L 176.5 209 Z " /><path fill="rgb(198,213,208)" stroke="rgb(198,213,208)" stroke-width="1" opacity="0.9568627450980393" d="M 187.5 209 L 307 209.5 L 187.5 210 L 187.5 209 Z " /><path fill="rgb(198,213,208)" stroke="rgb(198,213,208)" stroke-width="1" opacity="0.9568627450980393" d="M 311.5 209 L 320 209.5 L 311.5 210 L 311.5 209 Z " /><path fill="rgb(198,213,208)" stroke="rgb(198,213,208)" stroke-width="1" opacity="0.9568627450980393" d="M 338.5 211 L 340.5 214 L 338.5 211 Z " /><path fill="rgb(198,213,208)" stroke="rgb(198,213,208)" stroke-width="1" opacity="0.9568627450980393" d="M 328.5 212 L 329.5 214 L 328.5 212 Z " /><path fill="rgb(198,213,208)" stroke="rgb(198,213,208)" stroke-width="1" opacity="0.9568627450980393" d="M 146.5 215 L 145.5 217 L 146.5 215 Z " /><path fill="rgb(198,213,208)" stroke="rgb(198,213,208)" stroke-width="1" opacity="0.9568627450980393" d="M 163.5 215 L 161.5 218 L 163.5 215 Z " /><path fill="rgb(198,213,208)" stroke="rgb(198,213,208)" stroke-width="1" opacity="0.9568627450980393" d="M 350.5 216 L 352.5 219 L 350.5 216 Z " /><path fill="rgb(198,213,208)" stroke="rgb(198,213,208)" stroke-width="1" opacity="0.9568627450980393" d="M 345.5 218 L 346.5 220 L 345.5 218 Z " /><path fill="rgb(198,213,208)" stroke="rgb(198,213,208)" stroke-width="1" opacity="0.9568627450980393" d="M 347.5 221 L 348.5 223 L 347.5 221 Z " /><path fill="rgb(198,213,208)" stroke="rgb(198,213,208)" stroke-width="1" opacity="0.9568627450980393" d="M 349.5 224 L 351 227 L 354 228.5 L 351 228.5 L 349.5 224 Z " /><path fill="rgb(198,213,208)" stroke="rgb(198,213,208)" stroke-width="1" opacity="0.9568627450980393" d="M 235.5 228 L 236.5 230 L 235.5 228 Z " /><path fill="rgb(198,213,208)" stroke="rgb(198,213,208)" stroke-width="1" opacity="0.9568627450980393" d="M 260.5 229 L 259.5 231 L 260.5 229 Z " /><path fill="rgb(198,213,208)" stroke="rgb(198,213,208)" stroke-width="1" opacity="0.9568627450980393" d="M 214.5 230 L 211.5 234 L 214.5 230 Z " /><path fill="rgb(198,213,208)" stroke="rgb(198,213,208)" stroke-width="1" opacity="0.9568627450980393" d="M 282.5 230 L 285.5 234 L 282.5 230 Z " /><path fill="rgb(198,213,208)" stroke="rgb(198,213,208)" stroke-width="1" opacity="0.9568627450980393" d="M 137.5 232 L 138 234.5 L 137 234.5 L 137.5 232 Z " /><path fill="rgb(198,213,208)" stroke="rgb(198,213,208)" stroke-width="1" opacity="0.9568627450980393" d="M 355.5 233 L 358 234 L 358.5 236 L 359.5 234 L 360 235.5 L 359 239.5 L 360 239.5 L 360.5 238 L 361 240.5 L 360 245.5 L 362 245.5 L 362 321.5 L 361 326 L 358 326 L 358 319.5 L 357 319.5 L 356.5 337 L 356 252.5 L 357 251.5 L 357 245 L 355 244.5 L 355 237.5 L 354 234.5 L 355.5 233 Z " /><path fill="rgb(198,213,208)" stroke="rgb(198,213,208)" stroke-width="1" opacity="0.9568627450980393" d="M 369.5 234 L 370 236.5 L 369 236.5 L 369.5 234 Z " /><path fill="rgb(198,213,208)" stroke="rgb(198,213,208)" stroke-width="1" opacity="0.9568627450980393" d="M 209.5 236 L 208.5 238 L 209.5 236 Z " /><path fill="rgb(198,213,208)" stroke="rgb(198,213,208)" stroke-width="1" opacity="0.9568627450980393" d="M 325.5 237 L 329 237.5 L 325.5 238 L 325.5 237 Z " /><path fill="rgb(198,213,208)" stroke="rgb(198,213,208)" stroke-width="1" opacity="0.9568627450980393" d="M 141.5 238 L 142 240.5 L 141 240.5 L 141.5 238 Z " /><path fill="rgb(198,213,208)" stroke="rgb(198,213,208)" stroke-width="1" opacity="0.9568627450980393" d="M 370.5 238 L 371 241.5 L 370 241.5 L 370.5 238 Z " /><path fill="rgb(198,213,208)" stroke="rgb(198,213,208)" stroke-width="1" opacity="0.9568627450980393" d="M 135.5 242 L 136 244.5 L 135 244.5 L 135.5 242 Z " /><path fill="rgb(198,213,208)" stroke="rgb(198,213,208)" stroke-width="1" opacity="0.9568627450980393" d="M 287.5 242 L 288.5 244 L 287.5 242 Z " /><path fill="rgb(198,213,208)" stroke="rgb(198,213,208)" stroke-width="1" opacity="0.9568627450980393" d="M 140.5 246 L 141 332.5 L 140 333.5 L 140 350.5 L 141 352.5 L 140 352.5 L 140 351 Q 136.3 352.5 137 349.5 L 136 349.5 L 137 354.5 L 136 354.5 L 135 351.5 L 135 279.5 L 136 278.5 L 136.5 257 L 137 263 Q 141 264.4 139 257.5 L 140 256.5 L 140.5 246 Z " /><path fill="rgb(198,213,208)" stroke="rgb(198,213,208)" stroke-width="1" opacity="0.9568627450980393" d="M 308.5 247 L 311.5 251 L 308.5 247 Z " /><path fill="rgb(198,213,208)" stroke="rgb(198,213,208)" stroke-width="1" opacity="0.9568627450980393" d="M 181.5 261 L 182 265.5 L 181 265.5 L 181.5 261 Z " /><path fill="rgb(198,213,208)" stroke="rgb(198,213,208)" stroke-width="1" opacity="0.9568627450980393" d="M 315.5 262 L 316 268.5 L 315 268.5 L 315.5 262 Z " /><path fill="rgb(198,213,208)" stroke="rgb(198,213,208)" stroke-width="1" opacity="0.9568627450980393" d="M 288.5 268 L 287.5 270 L 288.5 268 Z " /><path fill="rgb(198,213,208)" stroke="rgb(198,213,208)" stroke-width="1" opacity="0.9568627450980393" d="M 283.5 273 L 282.5 275 L 283.5 273 Z " /><path fill="rgb(198,213,208)" stroke="rgb(198,213,208)" stroke-width="1" opacity="0.9568627450980393" d="M 174.5 276 L 172.5 279 L 174.5 276 Z " /><path fill="rgb(198,213,208)" stroke="rgb(198,213,208)" stroke-width="1" opacity="0.9568627450980393" d="M 321.5 276 L 327 282.5 L 325 281.5 L 321.5 276 Z " /><path fill="rgb(198,213,208)" stroke="rgb(198,213,208)" stroke-width="1" opacity="0.9568627450980393" d="M 222.5 277 L 229 277.5 L 222.5 278 L 222.5 277 Z " /><path fill="rgb(198,213,208)" stroke="rgb(198,213,208)" stroke-width="1" opacity="0.9568627450980393" d="M 268.5 277 L 274 277.5 L 268.5 278 L 268.5 277 Z " /><path fill="rgb(198,213,208)" stroke="rgb(198,213,208)" stroke-width="1" opacity="0.9568627450980393" d="M 253.5 282 L 254 303.5 L 253 303.5 L 253.5 282 Z " /><path fill="rgb(198,213,208)" stroke="rgb(198,213,208)" stroke-width="1" opacity="0.9568627450980393" d="M 169.5 283 L 170.5 285 L 169.5 283 Z " /><path fill="rgb(198,213,208)" stroke="rgb(198,213,208)" stroke-width="1" opacity="0.9568627450980393" d="M 183.5 286 L 189.5 293 L 183.5 286 Z " /><path fill="rgb(198,213,208)" stroke="rgb(198,213,208)" stroke-width="1" opacity="0.9568627450980393" d="M 256.5 291 L 257 295.5 L 256 295.5 L 256.5 291 Z " /><path fill="rgb(198,213,208)" stroke="rgb(198,213,208)" stroke-width="1" opacity="0.9568627450980393" d="M 191.5 293 L 192.5 295 L 191.5 293 Z " /><path fill="rgb(198,213,208)" stroke="rgb(198,213,208)" stroke-width="1" opacity="0.9568627450980393" d="M 197.5 296 L 200 296.5 L 197.5 297 L 197.5 296 Z " /><path fill="rgb(198,213,208)" stroke="rgb(198,213,208)" stroke-width="1" opacity="0.9568627450980393" d="M 298 296 L 300 296.5 L 298 297.5 L 298 296 Z " /><path fill="rgb(198,213,208)" stroke="rgb(198,213,208)" stroke-width="1" opacity="0.9568627450980393" d="M 256.5 305 L 257 310.5 L 256 310.5 L 256.5 305 Z " /><path fill="rgb(198,213,208)" stroke="rgb(198,213,208)" stroke-width="1" opacity="0.9568627450980393" d="M 328.5 312 L 329.5 314 L 328.5 312 Z " /><path fill="rgb(198,213,208)" stroke="rgb(198,213,208)" stroke-width="1" opacity="0.9568627450980393" d="M 167 313 L 169 313.5 L 167 314.5 L 167 313 Z " /><path fill="rgb(198,213,208)" stroke="rgb(198,213,208)" stroke-width="1" opacity="0.9568627450980393" d="M 256.5 319 L 256 320.5 Q 256.7 323.1 254 322 L 254 326.5 L 253 326.5 L 253 320 L 255.5 320 L 256.5 319 Z " /><path fill="rgb(198,213,208)" stroke="rgb(198,213,208)" stroke-width="1" opacity="0.9568627450980393" d="M 287.5 319 L 285.5 322 L 287.5 319 Z " /><path fill="rgb(198,213,208)" stroke="rgb(198,213,208)" stroke-width="1" opacity="0.9568627450980393" d="M 180 321 L 182 321.5 L 180 322.5 L 180 321 Z " /><path fill="rgb(198,213,208)" stroke="rgb(198,213,208)" stroke-width="1" opacity="0.9568627450980393" d="M 309.5 321 L 313 321.5 L 309.5 322 L 309.5 321 Z " /><path fill="rgb(198,213,208)" stroke="rgb(198,213,208)" stroke-width="1" opacity="0.9568627450980393" d="M 184.5 322 L 193 322.5 L 185.5 324 L 184.5 322 Z " /><path fill="rgb(198,213,208)" stroke="rgb(198,213,208)" stroke-width="1" opacity="0.9568627450980393" d="M 268.5 325 L 274 325.5 L 268.5 326 L 268.5 325 Z " /><path fill="rgb(198,213,208)" stroke="rgb(198,213,208)" stroke-width="1" opacity="0.9568627450980393" d="M 288.5 345 L 293 345.5 L 288.5 346 L 288.5 345 Z " /><path fill="rgb(198,213,208)" stroke="rgb(198,213,208)" stroke-width="1" opacity="0.9568627450980393" d="M 213.5 347 L 214.5 349 L 213.5 347 Z " /><path fill="rgb(198,213,208)" stroke="rgb(198,213,208)" stroke-width="1" opacity="0.9568627450980393" d="M 332.5 372 L 331.5 374 L 325.5 375 L 325.5 374 Q 330.8 374.8 332.5 372 Z " /><path fill="rgb(198,213,208)" stroke="rgb(198,213,208)" stroke-width="1" opacity="0.9568627450980393" d="M 167.5 373 L 172 374.5 L 168.5 375 L 167.5 373 Z " /><path fill="rgb(198,213,208)" stroke="rgb(198,213,208)" stroke-width="1" opacity="0.9568627450980393" d="M 343.5 379 L 342.5 381 L 343.5 379 Z " /><path fill="rgb(198,213,208)" stroke="rgb(198,213,208)" stroke-width="1" opacity="0.9568627450980393" d="M 339.5 383 L 337.5 386 L 339.5 383 Z " /><path fill="rgb(198,213,208)" stroke="rgb(198,213,208)" stroke-width="1" opacity="0.9568627450980393" d="M 158.5 384 L 169 391.5 L 167.5 392 Q 161 389.1 158.5 384 Z " /><path fill="rgb(198,213,208)" stroke="rgb(198,213,208)" stroke-width="1" opacity="0.9568627450980393" d="M 334.5 387 L 333.5 389 L 334.5 387 Z " /><path fill="rgb(198,213,208)" stroke="rgb(198,213,208)" stroke-width="1" opacity="0.9568627450980393" d="M 170.5 392 L 173 393.5 L 171.5 393 L 170.5 392 Z " /><path fill="rgb(198,213,208)" stroke="rgb(198,213,208)" stroke-width="1" opacity="0.9568627450980393" d="M 324.5 392 L 326 392.5 L 319.5 395 L 319.5 394 L 324.5 392 Z " /><path fill="rgb(198,213,208)" stroke="rgb(198,213,208)" stroke-width="1" opacity="0.9568627450980393" d="M 174.5 393 L 181 395.5 L 178.5 396 L 174 395 L 174.5 393 Z " /><path fill="rgb(198,213,208)" stroke="rgb(198,213,208)" stroke-width="1" opacity="0.9568627450980393" d="M 185.5 396 L 204 396.5 L 185.5 397 L 185.5 396 Z " /><path fill="rgb(198,213,208)" stroke="rgb(198,213,208)" stroke-width="1" opacity="0.9568627450980393" d="M 205.5 396 L 209 396.5 L 205.5 397 L 205.5 396 Z " /><path fill="rgb(198,213,208)" stroke="rgb(198,213,208)" stroke-width="1" opacity="0.9568627450980393" d="M 226.5 396 L 244 396.5 L 226.5 397 L 226.5 396 Z " /><path fill="rgb(198,213,208)" stroke="rgb(198,213,208)" stroke-width="1" opacity="0.9568627450980393" d="M 276.5 396 L 287 396.5 L 276.5 397 L 276.5 396 Z " /><path fill="rgb(198,213,208)" stroke="rgb(198,213,208)" stroke-width="1" opacity="0.9568627450980393" d="M 304.5 396 L 309 396.5 L 304.5 397 L 304.5 396 Z " /><path fill="rgb(250,186,17)" stroke="rgb(250,186,17)" stroke-width="1" opacity="1" d="M 234.5 166 L 238 167.5 Q 237.3 169.8 239.5 169 L 243 170 L 245 176 Q 250.4 177.5 252 174.5 Q 250.5 168.5 253.5 167 L 258.5 168 L 260.5 168 L 264.5 167 L 263.5 169 Q 261.3 168.3 262 170.5 L 261 174.5 L 262 177 Q 267.4 178.5 269 175.5 L 270.5 170 L 271 174.5 L 267.5 179 L 264.5 178 L 265 179.5 L 265.5 181 L 271.5 181 L 275.5 182 L 279 181.5 L 278.5 183 L 280 183.5 L 278.5 186 Q 284.4 184.3 283 188 L 269.5 188 L 268.5 187 L 232.5 187 L 230.5 188 L 228.5 188 L 223 187.5 L 226 187 L 225 184.5 Q 229.1 182.2 228 176 L 233.5 177 Q 237 176 236 170.5 Q 234.7 167.3 230 167.5 L 234.5 166 Z " /><path fill="rgb(250,186,17)" stroke="rgb(250,186,17)" stroke-width="1" opacity="1" d="M 178.5 212 L 318.5 212 L 335.5 219 L 336.5 218 L 342 223.5 L 348 234.5 L 349 239.5 L 349 255.5 L 348 255.5 Q 349.3 250.3 346.5 249 L 338.5 249 L 337.5 248 L 336.5 249 L 327.5 249 L 323.5 251 L 314.5 240 L 303.5 234 Q 296.8 235.8 295 232.5 L 288.5 224 L 280.5 219 L 271.5 217 Q 270 219.5 264.5 218 L 257.5 221 L 248.5 229 L 246 225 L 233.5 218 L 225.5 217 L 212.5 221 L 202 230.5 L 200.5 233 L 195.5 233 L 188.5 236 L 173.5 248 L 171.5 247 Q 167.8 250.3 159.5 249 L 157.5 248 L 149 250 L 148.5 253 L 147 251.5 L 147 243.5 L 150 230.5 L 158.5 219 L 158.5 221 Q 160.8 221.8 160 219.5 L 162.5 218 L 164.5 219 Q 169.5 213.5 178.5 212 Z M 168 222 L 166 223 L 162 228 Q 161 234 165 237 L 170 240 L 173 239 L 178 231 L 177 227 L 173 222 L 168 222 Z M 328 222 L 323 224 L 320 228 L 321 236 L 326 239 L 331 238 L 335 231 L 334 226 L 328 222 Z " /><path fill="rgb(250,186,17)" stroke="rgb(250,186,17)" stroke-width="1" opacity="1" d="M 272.5 233 L 279.5 235 L 286 241.5 L 280 243 L 284 251.5 L 284 259.5 L 280.5 264 L 278.5 263 L 275.5 265 L 273.5 265 L 266 266 L 268 279 L 281.5 277 L 287 271.5 L 292 259.5 L 292 250.5 L 291 247.5 L 292.5 248 Q 304 248 309 254.5 L 316 269.5 L 314 268.5 L 313 265 L 307.5 264 L 306 265.5 L 306 270.5 L 303 277.5 L 296.5 284 L 281.5 282 L 278 285.5 L 279.5 287 L 283 289.5 L 286 299.5 L 285 299.5 L 283.5 295 L 282 296.5 L 281 302.5 L 274.5 310 Q 265.5 311.5 261 317.5 L 260 321 Q 256 319.6 258 326.5 L 256 337 Q 253.3 338.1 254 335.5 Q 251.3 333.8 253 327.5 L 254 322 Q 256.7 323.1 256 320.5 L 257 319.5 L 257 305.5 L 256 304.5 L 256 296.5 L 257 295.5 L 257 243.5 L 262.5 236 L 265.5 234 Q 271 235.5 272.5 233 Z M 257 298 L 257 304 L 269 303 L 270 301 L 267 298 L 257 298 Z " /><path fill="rgb(250,186,17)" stroke="rgb(250,186,17)" stroke-width="1" opacity="1" d="M 222.5 234 L 230.5 234 L 240 241.5 L 242 248.5 L 242 270.5 L 243 271.5 L 243 292.5 L 244 293.5 L 244 325.5 L 243 325.5 L 241 314.5 L 241 305.5 L 241 303.5 L 241 297 L 238.5 297 L 237.5 298 L 228.5 298 L 227 299.5 L 228.5 303 L 235.5 304 L 240 303 Q 241.1 310.8 237.5 315 Q 234.3 310.7 225.5 312 L 220 307.5 L 214.5 297 L 211.5 302 L 211 296.5 L 216 287 Q 218.7 288.1 218 285.5 L 212.5 282 Q 210.8 284.8 205.5 284 L 196 277.5 L 192.5 270 L 192 277.5 L 193 279.5 L 191 280.5 L 188 274.5 L 188 263.5 L 186.5 262 L 182.5 268 L 182 266.5 L 192.5 251 L 195.5 249 L 206.5 247 L 208.5 245 L 206 248.5 L 205 260.5 L 212 275 Q 217 279.6 228.5 279 Q 232.3 276.8 231 269.5 L 229.5 268 L 221.5 268 L 216 263.5 Q 212.5 259.5 214 250.5 L 216 243 L 209.5 244 L 215.5 237 L 222.5 234 Z M 192 265 L 191 270 L 192 270 L 192 265 Z " /><path fill="rgb(250,186,17)" stroke="rgb(250,186,17)" stroke-width="1" opacity="1" d="M 177.5 275 L 184 288.5 L 190.5 295 L 202 299 L 202 305.5 L 204 312.5 L 211.5 324 L 219.5 327 L 224.5 327 L 231 326 L 232.5 323 L 234.5 323 Q 239.3 321.3 238 325.5 L 239 327.5 L 238 328.5 L 238 339 L 233 337 L 230 344 L 226 341.5 L 218.5 333 L 213.5 331 L 202.5 331 L 194.5 334 L 182.5 334 L 173 325.5 L 169.5 317 L 166 316.5 L 169.5 314 L 174 317 L 175.5 320 L 180.5 323 L 186.5 324 L 187.5 323 L 197 323 L 198 316.5 L 199.5 315 Q 202.9 315.9 201 310.5 L 200 307 L 185.5 304 L 177 295.5 L 173 286 L 168.5 287 L 169.5 285 L 175 282.5 Q 177.8 280.3 177.5 275 Z " /><path fill="rgb(250,186,17)" stroke="rgb(250,186,17)" stroke-width="1" opacity="1" d="M 317.5 279 L 322.5 282 L 324.5 281 Q 328.5 281.5 328 286.5 L 324 284.5 Q 322.6 296.6 314.5 302 Q 309.1 305.6 300.5 306 L 299 307.5 L 298 315.5 L 299 321 L 314.5 322 Q 323.4 319.4 328.5 313 L 331 316.5 L 328.5 315 Q 325.5 314.1 327 318.5 L 323 327.5 L 318.5 332 Q 313.4 335.4 303.5 334 Q 297.5 330 287.5 330 Q 276.8 332.3 272 340.5 L 268.5 345 L 265 343 L 262 334.5 Q 262.8 328.4 261 326 L 267.5 325 Q 268.8 327.2 273.5 326 L 275.5 325 L 277.5 326 Q 284.9 324.9 288 319.5 L 295 306.5 L 295 298 Q 306 297.8 311 290.5 L 317.5 279 Z " /><path fill="rgb(250,186,17)" stroke="rgb(250,186,17)" stroke-width="1" opacity="1" d="M 259.5 326 L 260 329.5 L 259 329.5 L 259.5 326 Z " /><path fill="rgb(250,186,17)" stroke="rgb(250,186,17)" stroke-width="1" opacity="1" d="M 293.5 345 L 298 347.5 L 296.5 349 L 286.5 349 L 282 352.5 L 278.5 357 L 280 354.5 Q 280.5 349 284.5 347 L 293.5 345 Z " /><path fill="rgb(250,186,17)" stroke="rgb(250,186,17)" stroke-width="1" opacity="1" d="M 211.5 346 L 211.5 348 L 216 349 L 218 354.5 L 216.5 354 L 211.5 353 L 210 357 L 204 352.5 L 202 347 L 210.5 347 L 211.5 346 Z " /><path fill="rgb(250,186,17)" stroke="rgb(250,186,17)" stroke-width="1" opacity="1" d="M 165.5 372 L 167.5 375 L 165.5 372 Z " /><path fill="rgb(250,186,17)" stroke="rgb(250,186,17)" stroke-width="1" opacity="1" d="M 326.5 375 L 329 375.5 L 326.5 376 L 326.5 375 Z " /><path fill="rgb(232,49,42)" stroke="rgb(232,49,42)" stroke-width="1" opacity="1" d="M 238.5 140 L 242.5 140 L 246 142 Q 244.6 138 251.5 140 L 253.5 140 Q 278 143.5 290 159.5 L 298 176.5 L 299 188 L 283.5 188 Q 284.5 184.7 278.5 186 L 277 183.5 Q 279.3 182.2 276.5 181 L 274.5 181 L 270.5 180 L 265 180.5 L 264 178.5 L 266.5 178 L 268 178.5 L 268 177 L 262.5 177 L 262 175.5 L 261 171.5 L 262 171.5 Q 261.3 175.3 263.5 176 L 268.5 175 Q 269.8 177.3 271 174.5 L 270.5 170 Q 269 172.5 267.5 169 L 262.5 170 L 262.5 169 L 265 167.5 L 262.5 167 L 260.5 168 L 258.5 168 L 253.5 167 L 252 167.5 Q 253.5 160.5 249.5 159 Q 245.5 158.5 245 161.5 L 244.5 174 L 243 170 L 238 169 L 236.5 166 L 230 167.5 Q 234.7 167.3 236 170.5 L 233.5 169 Q 229.8 168.3 229 170.5 L 228 173.5 L 229.5 176 Q 226.1 175.1 228 180.5 L 225 184.5 L 226 187 L 220.5 189 L 219.5 188 L 199.5 188 L 198 186.5 L 200 172.5 L 203 165.5 L 213.5 152 L 217.5 149 L 216.5 152 L 224 147.5 L 222.5 147 L 221 147.5 L 228.5 143 L 238.5 140 Z M 239 141 L 233 143 L 233 144 L 241 142 L 239 141 Z M 278 183 L 278 185 L 280 184 L 278 183 Z " /><path fill="rgb(232,49,42)" stroke="rgb(232,49,42)" stroke-width="1" opacity="1" d="M 251.5 173 L 252 174.5 L 249.5 176 L 249.5 175 Q 252 175.7 251.5 173 Z " /><path fill="rgb(232,49,42)" stroke="rgb(232,49,42)" stroke-width="1" opacity="1" d="M 235.5 174 L 233.5 177 L 231 176.5 L 235.5 174 Z " /><path fill="rgb(232,49,42)" stroke="rgb(232,49,42)" stroke-width="1" opacity="1" d="M 232.5 187 L 269 187.5 L 232.5 188 L 232.5 187 Z " /><path fill="rgb(232,49,42)" stroke="rgb(232,49,42)" stroke-width="1" opacity="1" d="M 225.5 217 L 229 217.5 L 225.5 218 L 225.5 217 Z " /><path fill="rgb(232,49,42)" stroke="rgb(232,49,42)" stroke-width="1" opacity="1" d="M 279.5 219 Q 287.6 221.4 292 227.5 L 296.5 234 L 303.5 234 L 310.5 237 L 320 245.5 L 323.5 251 L 327.5 249 L 336.5 249 L 337.5 248 L 338.5 249 L 346.5 249 L 348 250.5 L 348.5 256 L 349.5 240 L 350 354.5 L 346 366.5 L 339.5 376 L 326.5 386 L 308.5 390 L 186.5 390 L 170.5 386 L 155 372.5 Q 149.3 365.2 147 354.5 L 147 252.5 L 149 252.5 Q 147.9 249.2 150.5 250 L 158.5 248 L 159.5 249 L 167.5 249 L 172.5 247 L 174.5 248 L 188.5 236 L 195.5 233 L 200.5 233 L 202 231.5 L 209.5 223 L 203 230.5 L 200.5 234 Q 184.4 235.4 178 246.5 L 173 258.5 L 173 267.5 L 171.5 269 L 164 275.5 L 159 286.5 L 159 296.5 L 162 305.5 Q 155 313 157 329.5 Q 160.3 342.2 169.5 349 L 179 353.5 L 178.5 355 L 187.5 354 L 193 367.5 L 199.5 375 Q 207.7 382.3 222.5 383 L 234.5 380 L 245 373 L 248 367 Q 250.7 365.9 250 368.5 L 256.5 376 L 268.5 382 L 283.5 382 Q 296.2 378.7 303 369.5 L 309 357.5 L 309 354 Q 327.7 353.4 335 340.5 L 340 328.5 L 340 316.5 L 334 304.5 L 337 299.5 L 338 287.5 Q 335.9 275.6 327.5 270 L 324 267.5 Q 324.4 247.6 312.5 240 L 303.5 235 L 296.5 235 L 294 232.5 L 288.5 225 L 279.5 220 L 279.5 219 Z M 168 360 L 166 361 L 163 365 L 164 372 Q 165 376 173 375 L 177 369 L 177 364 Q 175 359 168 360 Z M 325 360 L 320 367 L 321 372 L 327 376 L 331 375 L 334 372 L 334 370 L 333 363 Q 331 359 325 360 Z " /><path fill="rgb(232,49,42)" stroke="rgb(232,49,42)" stroke-width="1" opacity="1" d="M 212.5 221 L 211.5 223 L 212.5 221 Z " /><path fill="rgb(232,49,42)" stroke="rgb(232,49,42)" stroke-width="1" opacity="1" d="M 257.5 221 L 256.5 223 L 257.5 221 Z " /><path fill="rgb(232,49,42)" stroke="rgb(232,49,42)" stroke-width="1" opacity="1" d="M 172.5 222 L 173.5 224 L 172.5 222 Z " /><path fill="rgb(232,49,42)" stroke="rgb(232,49,42)" stroke-width="1" opacity="1" d="M 241.5 222 L 242.5 224 L 241.5 222 Z " /><path fill="rgb(232,49,42)" stroke="rgb(232,49,42)" stroke-width="1" opacity="1" d="M 165.5 223 L 163.5 226 L 165.5 223 Z " /><path fill="rgb(232,49,42)" stroke="rgb(232,49,42)" stroke-width="1" opacity="1" d="M 254.5 223 L 248.5 230 L 247.5 228 L 248.5 229 L 254.5 223 Z " /><path fill="rgb(232,49,42)" stroke="rgb(232,49,42)" stroke-width="1" opacity="1" d="M 322.5 224 L 321.5 226 L 322.5 224 Z " /><path fill="rgb(232,49,42)" stroke="rgb(232,49,42)" stroke-width="1" opacity="1" d="M 332.5 224 L 333.5 226 L 332.5 224 Z " /><path fill="rgb(232,49,42)" stroke="rgb(232,49,42)" stroke-width="1" opacity="1" d="M 175.5 225 L 177 227.5 L 176 227.5 L 175.5 225 Z " /><path fill="rgb(232,49,42)" stroke="rgb(232,49,42)" stroke-width="1" opacity="1" d="M 348.5 236 L 349 238.5 L 348 238.5 L 348.5 236 Z " /><path fill="rgb(232,49,42)" stroke="rgb(232,49,42)" stroke-width="1" opacity="1" d="M 147.5 240 L 148 242.5 L 147 242.5 L 147.5 240 Z " /><path fill="rgb(232,49,42)" stroke="rgb(232,49,42)" stroke-width="1" opacity="1" d="M 213.5 254 L 214 258.5 L 213 258.5 L 213.5 254 Z " /><path fill="rgb(232,49,42)" stroke="rgb(232,49,42)" stroke-width="1" opacity="1" d="M 214.5 260 L 218.5 266 L 221.5 268 L 229.5 268 L 231 269.5 L 229.5 269 L 224.5 270 L 215 263.5 L 214.5 260 Z " /><path fill="rgb(232,49,42)" stroke="rgb(232,49,42)" stroke-width="1" opacity="1" d="M 186.5 262 L 188 263.5 L 188 274.5 L 191.5 281 L 193 278.5 L 192 277.5 L 191 265.5 L 192 265.5 L 192 269.5 Q 194.2 276.8 199.5 281 Q 202.3 284.7 209.5 284 L 213.5 282 L 218 285.5 L 217.5 287 L 217 285 L 211.5 284 L 206.5 289 L 200.5 289 Q 193.3 287.2 190 281.5 Q 185.8 276.4 187 267 L 183 268.5 Q 184 272.3 181 271 L 181 268 Q 183.7 269.1 183 266.5 L 186.5 262 Z " /><path fill="rgb(232,49,42)" stroke="rgb(232,49,42)" stroke-width="1" opacity="1" d="M 279.5 262 L 279.5 264 L 281 264.5 Q 277.7 271 267 269 L 266.5 271 L 266 266 L 274.5 264 L 276.5 264 L 279.5 262 Z " /><path fill="rgb(232,49,42)" stroke="rgb(232,49,42)" stroke-width="1" opacity="1" d="M 307.5 264 L 313 265 L 316 271.5 L 314.5 273 L 312 271.5 Q 310.5 281.5 303.5 286 L 291 290 L 287 283.5 L 289.5 283 Q 291 285.5 296.5 284 L 303 277.5 L 306 270.5 L 306 265.5 L 307.5 264 Z " /><path fill="rgb(232,49,42)" stroke="rgb(232,49,42)" stroke-width="1" opacity="1" d="M 230.5 273 L 231 275.5 L 230 275.5 L 230.5 273 Z " /><path fill="rgb(232,49,42)" stroke="rgb(232,49,42)" stroke-width="1" opacity="1" d="M 281.5 282 L 286 282.5 L 280.5 284 L 281.5 282 Z " /><path fill="rgb(232,49,42)" stroke="rgb(232,49,42)" stroke-width="1" opacity="1" d="M 324.5 284 L 328 286.5 L 328.5 285 L 329 296.5 Q 326.2 305.2 319.5 310 L 311.5 313 L 301.5 313 L 300 314.5 Q 298.7 319.3 301 320.5 L 299 321 L 298 314.5 Q 300.5 313 299 307.5 L 300.5 306 Q 314.2 305.2 320 296.5 L 324 288.5 L 324.5 284 Z " /><path fill="rgb(232,49,42)" stroke="rgb(232,49,42)" stroke-width="1" opacity="1" d="M 278.5 285 L 279.5 287 L 278.5 285 Z " /><path fill="rgb(232,49,42)" stroke="rgb(232,49,42)" stroke-width="1" opacity="1" d="M 170.5 286 Q 173.8 284.9 173 287.5 Q 176.8 298.2 185.5 304 L 200 307 L 201 315 L 198 316.5 L 197.5 321 L 197 313 L 186.5 314 Q 177.1 311.9 172 305.5 L 168 297.5 L 168 287 L 170.5 286 Z " /><path fill="rgb(232,49,42)" stroke="rgb(232,49,42)" stroke-width="1" opacity="1" d="M 283.5 290 L 285 292.5 L 284 292.5 L 283.5 290 Z " /><path fill="rgb(232,49,42)" stroke="rgb(232,49,42)" stroke-width="1" opacity="1" d="M 283.5 295 L 285.5 300 L 286.5 298 L 287 302.5 L 286 307.5 L 282.5 313 L 276.5 317 L 267 318 L 268 324.5 L 261 326 Q 262.8 328.4 262 334.5 L 265 343 L 268.5 345 L 279.5 333 L 287.5 330 L 292.5 330 L 303.5 334 L 313.5 334 Q 320 332.5 323 327.5 L 327 318.5 L 327 315 L 332 317 L 332 327.5 Q 330.2 335.7 324.5 340 Q 319.2 345.7 306.5 344 Q 301 336.5 287.5 337 Q 280.6 338.6 277 343.5 L 273 350.5 L 273 354.5 Q 273.8 356.8 277.5 356 L 280.5 351 L 281 352.5 L 280 354.5 L 282 353.5 L 284.5 350 Q 288.3 347.3 296.5 349 L 298.5 347 Q 302 349 301 355.5 Q 297.8 364.3 290.5 369 Q 284.2 374.7 270.5 373 Q 262 370.5 257 364.5 L 253 354.5 L 253 335.5 L 254 335.5 Q 253.3 338.1 256 337 L 257 334.5 L 258 321 Q 260.7 322.1 260 319.5 L 264.5 314 L 274.5 310 L 279 305.5 L 283.5 295 Z M 260 326 L 259 330 L 260 330 L 260 326 Z " /><path fill="rgb(232,49,42)" stroke="rgb(232,49,42)" stroke-width="1" opacity="1" d="M 214.5 297 Q 216.9 306.1 223.5 311 L 232.5 312 L 237.5 315 Q 241.1 310.8 240 303 L 230.5 304 L 227 301.5 L 228.5 298 Q 236.8 298.9 241 297 L 241 303.5 L 242 304.5 L 241 305.5 L 241 314.5 L 243.5 326 L 244.5 317 L 245 328.5 L 244 329.5 L 244 348.5 L 245 350.5 Q 242.3 352.3 244 358.5 L 242 362.5 L 235.5 369 Q 229.2 374.7 215.5 373 Q 205.9 370.6 201 363.5 L 197 352.5 L 201.5 347 Q 203.4 353.6 208.5 357 Q 211.1 357.8 210 354.5 Q 210.8 352.3 214.5 353 L 217.5 355 L 218 353.5 L 217.5 352 L 220.5 356 Q 224.3 356.8 225 354.5 L 225 350.5 L 218.5 341 L 211.5 337 L 204.5 337 L 195.5 341 L 190.5 345 L 182.5 345 Q 173.4 342.5 169 335.5 Q 164.6 329.9 165 319.5 L 166 317 Q 169.8 316 171 318.5 Q 172.4 329.1 180.5 333 L 182.5 334 L 194.5 334 Q 201 329.5 213.5 331 Q 222.1 333.4 226 340.5 L 228.5 344 Q 230.8 344.8 230 342.5 L 233 337 L 238 339 L 238 328.5 L 239 326.5 L 238 323 L 233.5 324 L 231 323.5 L 231 318 L 222.5 318 L 219.5 317 L 212 309.5 L 211 302.5 L 214.5 297 Z " /><path fill="rgb(232,49,42)" stroke="rgb(232,49,42)" stroke-width="1" opacity="1" d="M 257 298 L 266.5 298 L 270 300.5 L 268.5 303 L 257 304 L 257 298 Z " /><path fill="rgb(232,49,42)" stroke="rgb(232,49,42)" stroke-width="1" opacity="1" d="M 202.5 300 L 203 305.5 L 202 305.5 L 202.5 300 Z " /><path fill="rgb(105,134,150)" stroke="rgb(105,134,150)" stroke-width="1" opacity="0.9137254901960784" d="M 240.5 96 L 255 96.5 L 240.5 97 L 240.5 96 Z " /><path fill="rgb(105,134,150)" stroke="rgb(105,134,150)" stroke-width="1" opacity="0.9137254901960784" d="M 265.5 98 L 268 98.5 L 265.5 99 L 265.5 98 Z " /><path fill="rgb(105,134,150)" stroke="rgb(105,134,150)" stroke-width="1" opacity="0.9137254901960784" d="M 238.5 104 L 256 104.5 L 238.5 105 L 238.5 104 Z " /><path fill="rgb(105,134,150)" stroke="rgb(105,134,150)" stroke-width="1" opacity="0.9137254901960784" d="M 204.5 107 L 206 107.5 L 201.5 110 L 202.5 108 L 204.5 107 Z " /><path fill="rgb(105,134,150)" stroke="rgb(105,134,150)" stroke-width="1" opacity="0.9137254901960784" d="M 248.5 109 L 252 111.5 Q 252.8 115.3 250.5 116 Q 246 117 245 114.5 Q 244.3 110.8 246.5 110 L 248.5 109 Z " /><path fill="rgb(105,134,150)" stroke="rgb(105,134,150)" stroke-width="1" opacity="0.9137254901960784" d="M 197.5 111 L 196.5 113 L 197.5 111 Z " /><path fill="rgb(105,134,150)" stroke="rgb(105,134,150)" stroke-width="1" opacity="0.9137254901960784" d="M 298.5 111 L 299.5 113 L 298.5 111 Z " /><path fill="rgb(105,134,150)" stroke="rgb(105,134,150)" stroke-width="1" opacity="0.9137254901960784" d="M 194.5 113 L 192.5 116 L 194.5 113 Z " /><path fill="rgb(105,134,150)" stroke="rgb(105,134,150)" stroke-width="1" opacity="0.9137254901960784" d="M 301.5 113 L 302.5 115 L 301.5 113 Z " /><path fill="rgb(105,134,150)" stroke="rgb(105,134,150)" stroke-width="1" opacity="0.9137254901960784" d="M 304.5 115 L 306.5 118 L 304.5 115 Z " /><path fill="rgb(105,134,150)" stroke="rgb(105,134,150)" stroke-width="1" opacity="0.9137254901960784" d="M 189.5 117 L 188.5 119 L 189.5 117 Z " /><path fill="rgb(105,134,150)" stroke="rgb(105,134,150)" stroke-width="1" opacity="0.9137254901960784" d="M 294.5 118 L 295.5 120 L 294.5 118 Z " /><path fill="rgb(105,134,150)" stroke="rgb(105,134,150)" stroke-width="1" opacity="0.9137254901960784" d="M 308.5 118 L 311.5 122 L 308.5 118 Z " /><path fill="rgb(105,134,150)" stroke="rgb(105,134,150)" stroke-width="1" opacity="0.9137254901960784" d="M 198.5 120 L 197.5 122 L 198.5 120 Z " /><path fill="rgb(105,134,150)" stroke="rgb(105,134,150)" stroke-width="1" opacity="0.9137254901960784" d="M 184.5 121 L 175.5 131 L 184.5 121 Z " /><path fill="rgb(105,134,150)" stroke="rgb(105,134,150)" stroke-width="1" opacity="0.9137254901960784" d="M 195.5 122 L 191.5 127 L 195.5 122 Z " /><path fill="rgb(105,134,150)" stroke="rgb(105,134,150)" stroke-width="1" opacity="0.9137254901960784" d="M 240 122 L 259 122.5 L 257 123.5 L 260.5 124 L 263.5 123 L 263.5 124 L 258.5 126 L 256.5 126 L 239.5 127 L 230.5 125 L 225.5 128 L 223.5 127 L 224 128.5 L 219.5 133 L 217.5 132 L 215.5 136 L 212.5 136 L 206 140.5 L 201 148.5 L 201 152.5 L 192 166.5 L 190.5 173 L 189.5 171 L 186.5 172 L 185 171.5 L 185.5 170 Q 182.5 169.1 184 173.5 Q 180.5 177.5 182 186.5 L 180.5 188 Q 172.2 188.2 167.5 192 L 168 190.5 L 169 180.5 L 171.5 174 L 175.5 174 Q 180.5 175 181.5 172 L 183 172.5 Q 188.2 152.2 201.5 140 L 217.5 129 L 219.5 130 L 219.5 128 L 222.5 129 L 222.5 128 L 221 127.5 L 232.5 124 L 236.5 125 L 236.5 124 L 234 123.5 L 237.5 123 L 240 124 L 240 122 Z M 182 173 L 181 177 L 182 177 L 182 173 Z " /><path fill="rgb(105,134,150)" stroke="rgb(105,134,150)" stroke-width="1" opacity="0.9137254901960784" d="M 301.5 123 L 303.5 126 L 301.5 123 Z " /><path fill="rgb(105,134,150)" stroke="rgb(105,134,150)" stroke-width="1" opacity="0.9137254901960784" d="M 265.5 124 L 276 127.5 L 275.5 129 L 277.5 128 Q 290.8 133.8 299 144.5 Q 310.2 155.5 314 173 L 325 175 L 325.5 172 L 328 181.5 L 328 187.5 L 330 191.5 L 327.5 190 L 319.5 188 L 308 188 L 308 177.5 L 306 169.5 Q 298.3 151.7 284.5 140 L 283.5 141 L 279.5 137 L 277.5 137 L 275 135.5 L 276.5 133 L 266 126.5 L 268 125.5 L 265.5 125 L 262.5 126 L 262.5 125 L 265.5 124 Z " /><path fill="rgb(105,134,150)" stroke="rgb(105,134,150)" stroke-width="1" opacity="0.9137254901960784" d="M 318.5 128 L 320.5 131 L 318.5 128 Z " /><path fill="rgb(105,134,150)" stroke="rgb(105,134,150)" stroke-width="1" opacity="0.9137254901960784" d="M 173.5 133 L 172.5 135 L 173.5 133 Z " /><path fill="rgb(105,134,150)" stroke="rgb(105,134,150)" stroke-width="1" opacity="0.9137254901960784" d="M 184.5 133 L 181.5 137 L 184.5 133 Z " /><path fill="rgb(105,134,150)" stroke="rgb(105,134,150)" stroke-width="1" opacity="0.9137254901960784" d="M 322.5 133 L 328.5 141 L 330 140.5 L 329 142.5 L 329.5 144 L 322.5 133 Z " /><path fill="rgb(105,134,150)" stroke="rgb(105,134,150)" stroke-width="1" opacity="0.9137254901960784" d="M 303 135 L 308 136 L 309 140.5 L 306.5 142 L 303 140.5 L 302 137.5 L 303 135 Z " /><path fill="rgb(105,134,150)" stroke="rgb(105,134,150)" stroke-width="1" opacity="0.9137254901960784" d="M 171.5 136 L 170.5 138 L 171.5 136 Z " /><path fill="rgb(105,134,150)" stroke="rgb(105,134,150)" stroke-width="1" opacity="0.9137254901960784" d="M 190.5 136 Q 194.3 135.3 195 137.5 Q 196 142 193.5 143 L 190.5 144 L 187 141.5 L 190.5 136 Z " /><path fill="rgb(105,134,150)" stroke="rgb(105,134,150)" stroke-width="1" opacity="0.9137254901960784" d="M 314.5 136 L 316.5 139 L 314.5 136 Z " /><path fill="rgb(105,134,150)" stroke="rgb(105,134,150)" stroke-width="1" opacity="0.9137254901960784" d="M 179.5 139 L 178.5 141 L 179.5 139 Z " /><path fill="rgb(105,134,150)" stroke="rgb(105,134,150)" stroke-width="1" opacity="0.9137254901960784" d="M 214.5 139 L 212.5 142 L 211 141.5 L 214.5 139 Z " /><path fill="rgb(105,134,150)" stroke="rgb(105,134,150)" stroke-width="1" opacity="0.9137254901960784" d="M 168.5 140 L 168 141.5 L 166.5 144 L 167 142.5 L 168.5 140 Z " /><path fill="rgb(105,134,150)" stroke="rgb(105,134,150)" stroke-width="1" opacity="0.9137254901960784" d="M 177.5 142 L 176.5 144 L 177.5 142 Z " /><path fill="rgb(105,134,150)" stroke="rgb(105,134,150)" stroke-width="1" opacity="0.9137254901960784" d="M 164.5 144 L 165.5 146 L 164.5 144 Z " /><path fill="rgb(105,134,150)" stroke="rgb(105,134,150)" stroke-width="1" opacity="0.9137254901960784" d="M 331.5 144 L 332 146.5 L 333 150 L 335 150.5 L 334.5 152 L 336 152.5 L 335.5 154 L 338 155.5 Q 338.9 164.6 343 170.5 L 343 172.5 L 343 196.5 L 341 197 L 342 194.5 L 342 182.5 L 341 181.5 L 340 169.5 L 335 154.5 L 330 145.5 L 331.5 144 Z " /><path fill="rgb(105,134,150)" stroke="rgb(105,134,150)" stroke-width="1" opacity="0.9137254901960784" d="M 320.5 145 L 321.5 147 L 320.5 145 Z " /><path fill="rgb(105,134,150)" stroke="rgb(105,134,150)" stroke-width="1" opacity="0.9137254901960784" d="M 204.5 147 L 202.5 150 L 204.5 147 Z " /><path fill="rgb(105,134,150)" stroke="rgb(105,134,150)" stroke-width="1" opacity="0.9137254901960784" d="M 163.5 149 L 164 150.5 L 162.5 153 L 162 151.5 L 163.5 149 Z " /><path fill="rgb(105,134,150)" stroke="rgb(105,134,150)" stroke-width="1" opacity="0.9137254901960784" d="M 160.5 153 L 162 155.5 L 158.5 163 L 158 160.5 L 161 154.5 L 160.5 153 Z " /><path fill="rgb(105,134,150)" stroke="rgb(105,134,150)" stroke-width="1" opacity="0.9137254901960784" d="M 157.5 164 L 158 166.5 L 157 166.5 L 157.5 164 Z " /><path fill="rgb(105,134,150)" stroke="rgb(105,134,150)" stroke-width="1" opacity="0.9137254901960784" d="M 155.5 168 Q 157.8 168.8 157 172.5 Q 153.1 181.6 155 196.5 L 153.5 198 L 153 195.5 L 154 182.5 L 152 182.5 L 156 169.5 L 155.5 168 Z " /><path fill="rgb(105,134,150)" stroke="rgb(105,134,150)" stroke-width="1" opacity="0.9137254901960784" d="M 164.5 178 L 165 181.5 L 164 181.5 L 164.5 178 Z " /><path fill="rgb(105,134,150)" stroke="rgb(105,134,150)" stroke-width="1" opacity="0.9137254901960784" d="M 332.5 181 L 333 186.5 L 332 186.5 L 332.5 181 Z " /><path fill="rgb(105,134,150)" stroke="rgb(105,134,150)" stroke-width="1" opacity="0.9137254901960784" d="M 344.5 186 L 345 188.5 L 344 188.5 L 344.5 186 Z " /><path fill="rgb(105,134,150)" stroke="rgb(105,134,150)" stroke-width="1" opacity="0.9137254901960784" d="M 332.5 190 L 333 191.5 L 331 192.5 L 332.5 190 Z " /><path fill="rgb(105,134,150)" stroke="rgb(105,134,150)" stroke-width="1" opacity="0.9137254901960784" d="M 182.5 195 L 317 195.5 L 182.5 196 L 182.5 195 Z " /><path fill="rgb(105,134,150)" stroke="rgb(105,134,150)" stroke-width="1" opacity="0.9137254901960784" d="M 150.5 198 L 152 198.5 L 148.5 201 L 150.5 198 Z " /><path fill="rgb(105,134,150)" stroke="rgb(105,134,150)" stroke-width="1" opacity="0.9137254901960784" d="M 344.5 198 L 348.5 201 Q 349.8 198.8 351 201.5 L 350 202.5 L 355.5 208 L 357 207.5 L 355.5 209 L 345.5 199 L 344.5 198 Z " /><path fill="rgb(105,134,150)" stroke="rgb(105,134,150)" stroke-width="1" opacity="0.9137254901960784" d="M 233.5 202 L 269 202.5 L 233.5 203 L 233.5 202 Z " /><path fill="rgb(105,134,150)" stroke="rgb(105,134,150)" stroke-width="1" opacity="0.9137254901960784" d="M 273.5 202 L 278 202.5 L 273.5 203 L 273.5 202 Z " /><path fill="rgb(105,134,150)" stroke="rgb(105,134,150)" stroke-width="1" opacity="0.9137254901960784" d="M 299.5 202 L 314 202.5 L 299.5 203 L 299.5 202 Z " /><path fill="rgb(105,134,150)" stroke="rgb(105,134,150)" stroke-width="1" opacity="0.9137254901960784" d="M 145.5 203 L 144.5 205 L 145.5 203 Z " /><path fill="rgb(105,134,150)" stroke="rgb(105,134,150)" stroke-width="1" opacity="0.9137254901960784" d="M 158.5 203 L 157.5 205 L 158.5 203 Z " /><path fill="rgb(105,134,150)" stroke="rgb(105,134,150)" stroke-width="1" opacity="0.9137254901960784" d="M 319.5 203 L 322 203.5 L 319.5 204 L 319.5 203 Z " /><path fill="rgb(105,134,150)" stroke="rgb(105,134,150)" stroke-width="1" opacity="0.9137254901960784" d="M 339.5 204 L 341.5 207 L 339.5 204 Z " /><path fill="rgb(105,134,150)" stroke="rgb(105,134,150)" stroke-width="1" opacity="0.9137254901960784" d="M 154.5 206 L 152.5 209 L 154.5 206 Z " /><path fill="rgb(105,134,150)" stroke="rgb(105,134,150)" stroke-width="1" opacity="0.9137254901960784" d="M 141.5 207 L 140 209.5 L 137.5 213 L 139 210.5 L 141.5 207 Z " /><path fill="rgb(105,134,150)" stroke="rgb(105,134,150)" stroke-width="1" opacity="0.9137254901960784" d="M 180.5 208 L 189 208.5 L 180.5 209 L 180.5 208 Z " /><path fill="rgb(105,134,150)" stroke="rgb(105,134,150)" stroke-width="1" opacity="0.9137254901960784" d="M 305.5 208 L 312 208.5 L 305.5 209 L 305.5 208 Z " /><path fill="rgb(105,134,150)" stroke="rgb(105,134,150)" stroke-width="1" opacity="0.9137254901960784" d="M 336.5 210 L 337.5 212 L 336.5 210 Z " /><path fill="rgb(105,134,150)" stroke="rgb(105,134,150)" stroke-width="1" opacity="0.9137254901960784" d="M 149.5 211 L 146.5 215 L 149.5 211 Z " /><path fill="rgb(105,134,150)" stroke="rgb(105,134,150)" stroke-width="1" opacity="0.9137254901960784" d="M 158.5 211 L 150.5 220 L 158.5 211 Z " /><path fill="rgb(105,134,150)" stroke="rgb(105,134,150)" stroke-width="1" opacity="0.9137254901960784" d="M 357.5 211 L 361 213.5 L 360.5 215 L 363 216.5 L 366 222.5 L 365.5 224 L 367 224.5 L 366.5 226 L 368 226.5 L 368 228.5 L 369 235.5 L 368 235.5 L 366 226.5 L 357.5 211 Z " /><path fill="rgb(105,134,150)" stroke="rgb(105,134,150)" stroke-width="1" opacity="0.9137254901960784" d="M 165.5 213 L 164.5 215 L 165.5 213 Z " /><path fill="rgb(105,134,150)" stroke="rgb(105,134,150)" stroke-width="1" opacity="0.9137254901960784" d="M 332.5 214 L 333.5 216 L 332.5 214 Z " /><path fill="rgb(105,134,150)" stroke="rgb(105,134,150)" stroke-width="1" opacity="0.9137254901960784" d="M 341.5 214 L 344.5 218 L 341.5 214 Z " /><path fill="rgb(105,134,150)" stroke="rgb(105,134,150)" stroke-width="1" opacity="0.9137254901960784" d="M 349.5 214 L 350.5 216 L 349.5 214 Z " /><path fill="rgb(105,134,150)" stroke="rgb(105,134,150)" stroke-width="1" opacity="0.9137254901960784" d="M 160.5 217 L 159.5 219 L 160.5 217 Z " /><path fill="rgb(105,134,150)" stroke="rgb(105,134,150)" stroke-width="1" opacity="0.9137254901960784" d="M 336.5 217 L 339.5 221 L 336.5 217 Z " /><path fill="rgb(105,134,150)" stroke="rgb(105,134,150)" stroke-width="1" opacity="0.9137254901960784" d="M 134.5 218 L 133 220.5 L 131.5 225 L 131 221.5 L 134.5 218 Z " /><path fill="rgb(105,134,150)" stroke="rgb(105,134,150)" stroke-width="1" opacity="0.9137254901960784" d="M 345.5 219 L 346.5 221 L 345.5 219 Z " /><path fill="rgb(105,134,150)" stroke="rgb(105,134,150)" stroke-width="1" opacity="0.9137254901960784" d="M 149.5 221 L 148.5 223 L 149.5 221 Z " /><path fill="rgb(105,134,150)" stroke="rgb(105,134,150)" stroke-width="1" opacity="0.9137254901960784" d="M 223.5 226 L 231 226.5 L 223.5 227 L 223.5 226 Z " /><path fill="rgb(105,134,150)" stroke="rgb(105,134,150)" stroke-width="1" opacity="0.9137254901960784" d="M 267.5 226 L 274 226.5 L 267.5 227 L 267.5 226 Z " /><path fill="rgb(105,134,150)" stroke="rgb(105,134,150)" stroke-width="1" opacity="0.9137254901960784" d="M 237.5 229 L 241.5 234 L 237.5 229 Z " /><path fill="rgb(105,134,150)" stroke="rgb(105,134,150)" stroke-width="1" opacity="0.9137254901960784" d="M 259.5 229 L 255.5 234 L 259.5 229 Z " /><path fill="rgb(105,134,150)" stroke="rgb(105,134,150)" stroke-width="1" opacity="0.9137254901960784" d="M 128.5 231 L 129 232.5 L 127.5 235 L 127 233.5 L 128.5 231 Z " /><path fill="rgb(105,134,150)" stroke="rgb(105,134,150)" stroke-width="1" opacity="0.9137254901960784" d="M 333.5 233 L 330.5 237 L 333.5 233 Z " /><path fill="rgb(105,134,150)" stroke="rgb(105,134,150)" stroke-width="1" opacity="0.9137254901960784" d="M 136.5 234 L 137 236.5 L 136 236.5 L 136.5 234 Z " /><path fill="rgb(105,134,150)" stroke="rgb(105,134,150)" stroke-width="1" opacity="0.9137254901960784" d="M 210.5 234 L 209.5 236 L 210.5 234 Z " /><path fill="rgb(105,134,150)" stroke="rgb(105,134,150)" stroke-width="1" opacity="0.9137254901960784" d="M 286.5 234 L 287.5 236 L 286.5 234 Z " /><path fill="rgb(105,134,150)" stroke="rgb(105,134,150)" stroke-width="1" opacity="0.9137254901960784" d="M 321.5 234 L 322.5 236 L 321.5 234 Z " /><path fill="rgb(105,134,150)" stroke="rgb(105,134,150)" stroke-width="1" opacity="0.9137254901960784" d="M 168.5 237 L 172 237.5 L 168.5 238 L 168.5 237 Z " /><path fill="rgb(105,134,150)" stroke="rgb(105,134,150)" stroke-width="1" opacity="0.9137254901960784" d="M 288.5 237 L 290 239.5 L 289 239.5 L 288.5 237 Z " /><path fill="rgb(105,134,150)" stroke="rgb(105,134,150)" stroke-width="1" opacity="0.9137254901960784" d="M 354.5 237 L 355 239.5 L 354 239.5 L 354.5 237 Z " /><path fill="rgb(105,134,150)" stroke="rgb(105,134,150)" stroke-width="1" opacity="0.9137254901960784" d="M 369.5 237 L 370 240.5 L 369 240.5 L 369.5 237 Z " /><path fill="rgb(105,134,150)" stroke="rgb(105,134,150)" stroke-width="1" opacity="0.9137254901960784" d="M 244.5 239 L 245 290.5 L 244 290.5 L 244.5 239 Z " /><path fill="rgb(105,134,150)" stroke="rgb(105,134,150)" stroke-width="1" opacity="0.9137254901960784" d="M 141.5 241 L 142 247.5 L 141 247.5 L 141.5 241 Z " /><path fill="rgb(105,134,150)" stroke="rgb(105,134,150)" stroke-width="1" opacity="0.9137254901960784" d="M 252.5 241 L 253 245.5 L 252 245.5 L 252.5 241 Z " /><path fill="rgb(105,134,150)" stroke="rgb(105,134,150)" stroke-width="1" opacity="0.9137254901960784" d="M 290.5 241 L 291.5 242 L 300 242.5 L 291.5 243 L 290.5 241 Z " /><path fill="rgb(105,134,150)" stroke="rgb(105,134,150)" stroke-width="1" opacity="0.9137254901960784" d="M 361.5 241 L 362 244.5 L 361 244.5 L 361.5 241 Z " /><path fill="rgb(105,134,150)" stroke="rgb(105,134,150)" stroke-width="1" opacity="0.9137254901960784" d="M 197.5 242 L 204 242.5 L 197.5 243 L 197.5 242 Z " /><path fill="rgb(105,134,150)" stroke="rgb(105,134,150)" stroke-width="1" opacity="0.9137254901960784" d="M 286.5 242 L 288.5 245 L 286.5 242 Z " /><path fill="rgb(105,134,150)" stroke="rgb(105,134,150)" stroke-width="1" opacity="0.9137254901960784" d="M 370.5 242 L 371 247.5 L 370 247.5 L 370.5 242 Z " /><path fill="rgb(105,134,150)" stroke="rgb(105,134,150)" stroke-width="1" opacity="0.9137254901960784" d="M 210.5 243 L 209.5 245 L 210.5 243 Z " /><path fill="rgb(105,134,150)" stroke="rgb(105,134,150)" stroke-width="1" opacity="0.9137254901960784" d="M 189.5 245 L 185.5 250 L 189.5 245 Z " /><path fill="rgb(105,134,150)" stroke="rgb(105,134,150)" stroke-width="1" opacity="0.9137254901960784" d="M 306.5 245 L 307.5 247 L 306.5 245 Z " /><path fill="rgb(105,134,150)" stroke="rgb(105,134,150)" stroke-width="1" opacity="0.9137254901960784" d="M 355.5 245 L 356 307.5 L 355 307.5 L 355.5 245 Z " /><path fill="rgb(105,134,150)" stroke="rgb(105,134,150)" stroke-width="1" opacity="0.9137254901960784" d="M 208.5 246 L 207.5 248 L 208.5 246 Z " /><path fill="rgb(105,134,150)" stroke="rgb(105,134,150)" stroke-width="1" opacity="0.9137254901960784" d="M 125.5 249 L 126 347.5 L 125 347.5 L 125.5 249 Z " /><path fill="rgb(105,134,150)" stroke="rgb(105,134,150)" stroke-width="1" opacity="0.9137254901960784" d="M 134.5 249 L 135 348.5 L 134 348.5 L 134.5 249 Z " /><path fill="rgb(105,134,150)" stroke="rgb(105,134,150)" stroke-width="1" opacity="0.9137254901960784" d="M 184.5 251 L 183.5 253 L 184.5 251 Z " /><path fill="rgb(105,134,150)" stroke="rgb(105,134,150)" stroke-width="1" opacity="0.9137254901960784" d="M 284.5 253 L 285 257.5 L 284 257.5 L 284.5 253 Z " /><path fill="rgb(105,134,150)" stroke="rgb(105,134,150)" stroke-width="1" opacity="0.9137254901960784" d="M 141.5 258 L 142 286.5 L 141 286.5 L 141.5 258 Z " /><path fill="rgb(105,134,150)" stroke="rgb(105,134,150)" stroke-width="1" opacity="0.9137254901960784" d="M 181.5 258 L 182 260.5 L 181 260.5 L 181.5 258 Z " /><path fill="rgb(105,134,150)" stroke="rgb(105,134,150)" stroke-width="1" opacity="0.9137254901960784" d="M 315.5 258 L 316 261.5 L 315 261.5 L 315.5 258 Z " /><path fill="rgb(105,134,150)" stroke="rgb(105,134,150)" stroke-width="1" opacity="0.9137254901960784" d="M 282.5 262 L 281.5 264 L 282.5 262 Z " /><path fill="rgb(105,134,150)" stroke="rgb(105,134,150)" stroke-width="1" opacity="0.9137254901960784" d="M 209.5 269 L 213.5 274 L 209.5 269 Z " /><path fill="rgb(105,134,150)" stroke="rgb(105,134,150)" stroke-width="1" opacity="0.9137254901960784" d="M 286.5 270 L 284.5 273 L 286.5 270 Z " /><path fill="rgb(105,134,150)" stroke="rgb(105,134,150)" stroke-width="1" opacity="0.9137254901960784" d="M 176.5 274 L 178 274.5 L 175.5 276 L 176.5 274 Z " /><path fill="rgb(105,134,150)" stroke="rgb(105,134,150)" stroke-width="1" opacity="0.9137254901960784" d="M 323.5 277 L 325.5 280 L 323.5 277 Z " /><path fill="rgb(105,134,150)" stroke="rgb(105,134,150)" stroke-width="1" opacity="0.9137254901960784" d="M 171.5 279 L 170.5 281 L 171.5 279 Z " /><path fill="rgb(105,134,150)" stroke="rgb(105,134,150)" stroke-width="1" opacity="0.9137254901960784" d="M 215.5 288 L 214.5 290 L 215.5 288 Z " /><path fill="rgb(105,134,150)" stroke="rgb(105,134,150)" stroke-width="1" opacity="0.9137254901960784" d="M 311.5 288 L 308.5 292 L 311.5 288 Z " /><path fill="rgb(105,134,150)" stroke="rgb(105,134,150)" stroke-width="1" opacity="0.9137254901960784" d="M 306.5 292 L 305.5 294 L 306.5 292 Z " /><path fill="rgb(105,134,150)" stroke="rgb(105,134,150)" stroke-width="1" opacity="0.9137254901960784" d="M 295.5 296 L 298 296.5 L 294.5 298 L 295.5 296 Z " /><path fill="rgb(105,134,150)" stroke="rgb(105,134,150)" stroke-width="1" opacity="0.9137254901960784" d="M 328.5 311 L 329.5 313 L 327 312.5 L 328.5 311 Z " /><path fill="rgb(105,134,150)" stroke="rgb(105,134,150)" stroke-width="1" opacity="0.9137254901960784" d="M 325.5 314 L 323.5 317 L 325.5 314 Z " /><path fill="rgb(105,134,150)" stroke="rgb(105,134,150)" stroke-width="1" opacity="0.9137254901960784" d="M 174.5 317 L 175.5 319 L 174.5 317 Z " /><path fill="rgb(105,134,150)" stroke="rgb(105,134,150)" stroke-width="1" opacity="0.9137254901960784" d="M 208.5 318 L 211.5 322 L 208.5 318 Z " /><path fill="rgb(105,134,150)" stroke="rgb(105,134,150)" stroke-width="1" opacity="0.9137254901960784" d="M 357.5 319 L 358 326 Q 362.5 327.8 361 322.5 L 362 322.5 L 362 351.5 L 360 360.5 Q 354.6 379.6 340.5 390 L 323.5 399 L 310.5 402 L 184.5 402 L 169.5 398 L 161.5 394 L 147 381.5 Q 137.9 370.1 135 352.5 L 136.5 349 L 137 351 L 140 350.5 L 140 333.5 L 141 333.5 L 141 350.5 L 144 362.5 L 143.5 364 Q 145.8 363.3 145 365.5 Q 150.5 378.5 160.5 387 Q 161.7 384.8 163 387.5 L 162.5 389 L 164.5 388 L 165.5 391 L 167.5 390 L 167.5 392 L 170.5 391 L 170.5 393 L 172.5 392 L 172.5 394 L 177.5 395 L 179 394.5 L 178.5 396 L 185.5 395 L 185.5 397 L 203.5 397 L 204.5 396 L 208.5 397 L 209.5 396 L 225.5 396 L 226.5 397 L 243.5 397 L 244.5 396 L 275.5 396 L 276.5 397 L 286.5 397 L 287.5 396 L 303.5 396 L 308.5 397 L 310.5 395 L 318.5 394 L 320.5 395 L 320.5 393 L 323.5 394 L 323.5 392 L 326 393.5 L 326.5 391 L 328 391.5 L 328.5 390 L 330 390.5 L 330.5 389 L 332 389.5 L 333.5 387 L 335 387.5 L 336.5 385 Q 338.2 387.8 340 383.5 L 341.5 381 L 344 379.5 L 347.5 374 L 349 373.5 Q 346.5 372 350 370.5 L 355 356.5 L 357.5 319 Z M 137 352 L 136 355 L 137 355 L 137 352 Z " /><path fill="rgb(105,134,150)" stroke="rgb(105,134,150)" stroke-width="1" opacity="0.9137254901960784" d="M 182.5 321 L 185 321.5 L 182.5 322 L 182.5 321 Z " /><path fill="rgb(105,134,150)" stroke="rgb(105,134,150)" stroke-width="1" opacity="0.9137254901960784" d="M 192.5 321 L 195 321.5 L 192.5 322 L 192.5 321 Z " /><path fill="rgb(105,134,150)" stroke="rgb(105,134,150)" stroke-width="1" opacity="0.9137254901960784" d="M 220.5 325 L 229 325.5 L 220.5 326 L 220.5 325 Z " /><path fill="rgb(105,134,150)" stroke="rgb(105,134,150)" stroke-width="1" opacity="0.9137254901960784" d="M 370.5 344 L 371 355.5 L 369 364.5 L 369.5 366 Q 366.9 365.2 368 368.5 Q 361.3 385.3 348.5 396 Q 338.2 405.2 322.5 409 L 322.5 408 Q 345.1 402.1 357 385.5 L 367 367.5 L 370.5 344 Z " /><path fill="rgb(105,134,150)" stroke="rgb(105,134,150)" stroke-width="1" opacity="0.9137254901960784" d="M 206.5 345 L 209 345.5 L 206.5 346 L 206.5 345 Z " /><path fill="rgb(105,134,150)" stroke="rgb(105,134,150)" stroke-width="1" opacity="0.9137254901960784" d="M 283.5 347 L 281.5 350 L 283.5 347 Z " /><path fill="rgb(105,134,150)" stroke="rgb(105,134,150)" stroke-width="1" opacity="0.9137254901960784" d="M 126.5 352 L 131 370.5 L 135 379.5 L 139 383.5 L 138.5 386 L 135 382.5 L 129 370.5 L 126 361.5 L 126.5 352 Z " /><path fill="rgb(105,134,150)" stroke="rgb(105,134,150)" stroke-width="1" opacity="0.9137254901960784" d="M 164.5 370 L 166.5 373 L 164 372 L 164.5 370 Z " /><path fill="rgb(105,134,150)" stroke="rgb(105,134,150)" stroke-width="1" opacity="0.9137254901960784" d="M 321.5 370 L 324.5 374 Q 321.9 374.7 323 372 L 321 372 L 321.5 370 Z " /><path fill="rgb(105,134,150)" stroke="rgb(105,134,150)" stroke-width="1" opacity="0.9137254901960784" d="M 332.5 371 L 334 371.5 L 331.5 373 L 332.5 371 Z " /><path fill="rgb(105,134,150)" stroke="rgb(105,134,150)" stroke-width="1" opacity="0.9137254901960784" d="M 329.5 373 L 330.5 375 L 329.5 373 Z " /><path fill="rgb(105,134,150)" stroke="rgb(105,134,150)" stroke-width="1" opacity="0.9137254901960784" d="M 142.5 391 L 145 392.5 L 147 395.5 L 142.5 391 Z " /><path fill="rgb(105,134,150)" stroke="rgb(105,134,150)" stroke-width="1" opacity="0.9137254901960784" d="M 316.5 409 L 321 409.5 L 305.5 413 L 304.5 412 L 278.5 412 L 274.5 412 L 265.5 413 L 263.5 413 L 260.5 412 L 259.5 413 L 250.5 413 L 246.5 413 L 244.5 412 L 241.5 413 L 228.5 412 L 223.5 413 L 223.5 412 L 226.5 411 L 309.5 411 L 316.5 409 Z " /><path fill="rgb(105,134,150)" stroke="rgb(105,134,150)" stroke-width="1" opacity="0.9137254901960784" d="M 186.5 411 L 195 411.5 L 186.5 412 L 186.5 411 Z " /><path fill="rgb(105,134,150)" stroke="rgb(105,134,150)" stroke-width="1" opacity="0.9137254901960784" d="M 209.5 411 L 218.5 411 L 219 413 L 215.5 412 L 212.5 413 L 198 412.5 L 208.5 412 L 209.5 411 Z " /><path fill="rgb(20,33,59)" stroke="rgb(20,33,59)" stroke-width="1" opacity="0.9921568627450981" d="M 235.5 97 L 259.5 97 L 279.5 102 Q 300.7 109.8 315 124.5 Q 314.3 126.8 316.5 126 Q 327.8 138.2 335 154.5 L 341 174.5 L 342 194.5 L 341 197 L 345.5 199 L 357 210.5 L 366 226.5 L 371 248.5 L 371 333.5 L 371 335.5 L 369 359.5 L 365 372.5 Q 357.9 387.4 345.5 397 L 329.5 406 L 321.5 409 L 316.5 409 L 309.5 411 L 226.5 411 Q 225 413.5 219.5 412 L 218.5 411 L 209.5 411 L 208.5 412 L 195.5 412 L 194.5 411 L 183.5 411 L 170.5 408 L 154.5 401 L 145 393.5 L 143.5 391 Q 141.3 391.8 142 389.5 L 138 384.5 L 139 383.5 L 135 379.5 Q 128.7 367.3 126 351.5 L 126 242.5 Q 129.8 220.3 142.5 207 Q 144.8 207.8 144 205.5 L 148 203 L 150.5 199 L 155 196.5 L 155 179.5 L 156 178.5 L 157 167.5 L 164 148.5 Q 172.7 130.7 187.5 119 L 207.5 106 L 219.5 101 L 235.5 97 Z M 239 104 L 219 109 L 196 122 Q 179 135 170 156 L 164 179 L 164 193 Q 170 189 181 188 L 182 187 Q 181 177 184 174 Q 182 169 186 170 L 185 172 L 187 172 L 190 171 L 191 173 L 192 167 L 196 161 L 195 159 L 197 159 L 199 155 L 199 153 L 201 153 L 201 149 L 206 141 L 213 136 L 216 136 L 218 132 L 220 133 L 223 129 L 219 130 L 217 131 L 224 127 L 226 128 L 234 124 L 237 125 L 233 126 L 240 127 L 257 126 L 259 126 L 261 125 L 258 124 L 258 123 L 268 126 L 266 127 L 277 133 L 275 136 L 278 137 L 279 136 L 284 141 L 285 140 Q 298 152 306 170 L 308 178 L 308 188 Q 322 186 331 192 Q 332 194 333 192 L 332 190 L 333 187 L 332 174 L 328 159 L 317 139 L 310 130 L 295 118 L 277 109 L 256 104 L 239 104 Z M 263 125 L 263 126 L 265 126 L 263 125 Z M 239 140 Q 238 142 241 142 L 235 144 L 232 143 L 226 145 L 228 146 L 218 152 L 216 151 L 214 152 L 211 156 Q 207 157 210 159 L 207 160 L 208 162 L 207 164 Q 205 168 204 165 L 200 173 L 198 187 L 200 188 L 220 188 L 221 189 L 223 188 L 299 188 L 298 177 L 290 160 Q 278 144 254 140 L 252 140 L 247 140 L 246 142 L 245 142 L 243 142 L 243 141 L 239 140 Z M 235 141 L 235 142 L 238 142 L 235 141 Z M 206 162 L 204 165 L 206 164 L 206 162 Z M 183 195 L 172 197 L 155 206 Q 144 215 138 229 L 136 235 L 135 249 L 134 250 L 134 349 L 137 363 L 147 382 L 162 394 L 170 398 L 185 402 L 311 402 L 324 399 L 341 390 Q 358 377 362 352 L 362 242 L 359 230 L 351 216 Q 340 199 317 195 L 183 195 Z " /><path fill="rgb(20,33,59)" stroke="rgb(20,33,59)" stroke-width="1" opacity="0.9921568627450981" d="M 275.5 128 L 278 129.5 L 276.5 129 L 275.5 128 Z " /><path fill="rgb(20,33,59)" stroke="rgb(20,33,59)" stroke-width="1" opacity="0.9921568627450981" d="M 290.5 137 L 291.5 139 L 290.5 137 Z " /><path fill="rgb(20,33,59)" stroke="rgb(20,33,59)" stroke-width="1" opacity="0.9921568627450981" d="M 213.5 154 L 212.5 156 L 213.5 154 Z " /><path fill="rgb(20,33,59)" stroke="rgb(20,33,59)" stroke-width="1" opacity="0.9921568627450981" d="M 247.5 159 Q 251.5 158.5 252 161.5 Q 253.4 171.1 251 175 L 247.5 176 L 245 175 L 245 161.5 L 247.5 159 Z " /><path fill="rgb(20,33,59)" stroke="rgb(20,33,59)" stroke-width="1" opacity="0.9921568627450981" d="M 230.5 169 Q 235.3 168.3 236 171.5 Q 236.5 175.5 233.5 176 Q 228.8 176.8 228 173.5 L 230.5 169 Z " /><path fill="rgb(20,33,59)" stroke="rgb(20,33,59)" stroke-width="1" opacity="0.9921568627450981" d="M 264.5 169 Q 269.3 168.3 270 171.5 L 267.5 176 Q 263 177 262 174.5 Q 260.1 169.1 263.5 170 L 264.5 169 Z " /><path fill="rgb(20,33,59)" stroke="rgb(20,33,59)" stroke-width="1" opacity="0.9921568627450981" d="M 178.5 203 L 318.5 203 Q 336 206.5 345 218.5 Q 352.6 226.9 355 240.5 L 356 347.5 L 355 348.5 L 355 356.5 L 351 368.5 Q 345.8 378.3 337.5 385 L 325.5 392 L 309.5 396 L 186.5 396 Q 185 393.5 179.5 395 L 166.5 390 L 151 376.5 L 144 363.5 L 141 350.5 L 141 287.5 L 142 286.5 L 142 258.5 L 141 257.5 L 141 248.5 L 142 247.5 L 142 238.5 L 148 223.5 L 160.5 210 L 170.5 205 L 178.5 203 Z M 181 208 L 172 210 L 161 217 Q 150 225 147 241 L 147 355 Q 149 365 155 373 L 171 386 L 187 390 L 309 390 L 327 386 L 340 376 L 346 367 L 350 355 L 350 241 Q 347 228 340 221 Q 334 214 325 210 L 313 209 L 312 208 Q 306 207 305 209 L 190 209 L 189 208 L 181 208 Z " /><path fill="rgb(20,33,59)" stroke="rgb(20,33,59)" stroke-width="1" opacity="0.9921568627450981" d="M 221.5 218 L 232.5 218 Q 241.3 221.3 247 227.5 L 248.5 230 Q 253.8 222.8 262.5 219 Q 267.2 216.8 275.5 218 Q 285.1 220.9 291 227.5 L 296.5 235 L 303.5 235 Q 312.5 238.5 318 245.5 L 324 258.5 L 324 267.5 L 326.5 270 L 333 275.5 Q 338.5 282 338 294.5 L 334 305.5 Q 342.1 311.9 340 328.5 Q 336.5 343 325.5 350 L 315.5 354 L 309 354 Q 306.9 368.6 296.5 376 L 283.5 382 L 268.5 382 Q 259.1 379.9 254 373.5 L 250 367 Q 247.3 365.9 248 368.5 L 245 373 L 238.5 378 L 229.5 382 L 219.5 383 L 203.5 378 L 195 370.5 L 187.5 354 Q 169.5 354 163 342.5 L 157 329.5 L 157 316.5 L 162 303.5 Q 157.5 298 159 286.5 Q 162 275 170.5 269 L 173 267.5 Q 172.4 246.4 185.5 239 Q 190.5 234 200.5 234 L 203 231.5 L 210.5 223 L 221.5 218 Z M 224 226 L 216 229 Q 209 233 206 242 Q 205 244 204 242 L 198 242 L 190 245 Q 178 252 181 271 Q 184 272 183 269 L 187 267 Q 186 276 190 282 Q 193 287 201 289 L 207 289 L 212 284 L 217 285 L 211 296 L 211 308 L 212 310 L 220 317 L 231 318 L 231 325 L 230 326 L 229 325 L 219 325 L 213 322 L 204 312 Q 202 306 203 298 L 190 292 Q 181 286 178 276 Q 179 273 177 274 L 168 285 L 168 298 L 172 306 Q 177 312 187 314 L 191 313 L 197 313 L 197 321 L 192 322 L 186 322 L 178 320 L 169 314 Q 170 311 167 312 L 165 320 Q 165 330 169 336 Q 173 343 183 345 L 191 345 L 196 341 L 205 337 L 212 337 L 219 341 L 225 351 L 225 355 Q 224 357 221 356 L 217 351 Q 214 346 209 345 L 203 346 L 197 353 L 201 364 Q 206 371 216 373 Q 229 375 236 369 L 242 363 L 244 359 Q 242 352 245 351 L 244 349 L 244 330 L 245 329 L 245 318 L 244 317 L 244 292 L 245 291 L 245 240 L 242 234 Q 237 225 224 226 Z M 268 226 L 260 229 Q 253 233 252 242 L 253 247 L 253 355 L 257 365 Q 262 370 271 373 Q 284 375 291 369 Q 298 364 301 356 L 300 349 L 295 345 Q 287 344 284 347 L 278 356 Q 274 357 273 355 L 273 351 L 277 344 Q 281 339 288 337 Q 301 336 307 344 Q 319 346 325 340 Q 330 336 332 328 Q 334 316 329 311 L 327 314 L 317 320 L 302 321 Q 299 320 300 315 L 302 313 L 312 313 L 320 310 Q 326 305 329 297 Q 331 285 326 280 L 321 275 L 319 275 L 313 287 Q 308 295 296 296 Q 293 297 295 299 Q 295 311 289 318 Q 283 326 269 325 Q 266 323 267 318 L 277 317 L 283 313 L 286 308 L 287 303 L 285 292 L 279 284 Q 281 282 287 283 L 291 290 L 304 286 Q 311 282 312 272 L 315 273 L 316 272 Q 318 258 313 252 Q 308 241 292 242 L 285 231 L 278 227 L 268 226 Z " /><path fill="rgb(20,33,59)" stroke="rgb(20,33,59)" stroke-width="1" opacity="0.9921568627450981" d="M 168.5 222 L 171.5 222 L 175 224 Q 177.6 226.3 177 232.5 L 174.5 236 L 166.5 237 Q 162.1 234.9 162 228.5 L 166.5 223 L 168.5 222 Z " /><path fill="rgb(20,33,59)" stroke="rgb(20,33,59)" stroke-width="1" opacity="0.9921568627450981" d="M 324.5 223 Q 332.5 221.5 334 226.5 Q 335.5 235.5 329.5 237 Q 322.3 238.3 321 233.5 L 320 228.5 L 324.5 223 Z " /><path fill="rgb(20,33,59)" stroke="rgb(20,33,59)" stroke-width="1" opacity="0.9921568627450981" d="M 284.5 242 L 289 245.5 L 291 248.5 L 292 257.5 Q 290.3 268.8 282.5 274 Q 276.7 278.1 267 277 L 267 269 L 275.5 269 L 283 262.5 Q 285.6 259.6 285 253.5 L 280 243 L 284.5 242 Z " /><path fill="rgb(20,33,59)" stroke="rgb(20,33,59)" stroke-width="1" opacity="0.9921568627450981" d="M 211.5 243 Q 215.3 242.3 216 244.5 L 214 248.5 L 213 258.5 Q 214.3 264.3 218.5 267 L 226.5 270 L 229.5 269 L 231 272.5 L 230 277 Q 213.7 278.2 208 267.5 L 205 258.5 L 205 252.5 L 211.5 243 Z " /><path fill="rgb(20,33,59)" stroke="rgb(20,33,59)" stroke-width="1" opacity="0.9921568627450981" d="M 167.5 360 Q 175.1 358.9 177 363.5 Q 178.1 371.1 173.5 373 L 169.5 374 L 164 369.5 L 163 364.5 L 165.5 361 L 167.5 360 Z " /><path fill="rgb(20,33,59)" stroke="rgb(20,33,59)" stroke-width="1" opacity="0.9921568627450981" d="M 324.5 360 Q 331 359 333 362.5 L 334 369.5 Q 331.9 373.9 325.5 374 L 320 366.5 L 324.5 360 Z " /></svg>